<svg xmlns="http://www.w3.org/2000/svg" xmlns:xlink="http://www.w3.org/1999/xlink" width="580" zoomAndPan="magnify" viewBox="0 0 434.88 149.999998" height="200" preserveAspectRatio="xMidYMid meet" version="1.0"><defs><g/><clipPath id="b742e056c5"><path d="M 7.402344 43.246094 L 65.609375 43.246094 L 65.609375 106.914062 L 7.402344 106.914062 Z M 7.402344 43.246094 " clip-rule="nonzero"/></clipPath><clipPath id="7d50a50a3e"><path d="M 11.898438 43.246094 L 61.113281 43.246094 C 62.304688 43.246094 63.449219 43.722656 64.292969 44.566406 C 65.136719 45.410156 65.609375 46.554688 65.609375 47.746094 L 65.609375 102.253906 C 65.609375 103.445312 65.136719 104.589844 64.292969 105.433594 C 63.449219 106.277344 62.304688 106.753906 61.113281 106.753906 L 11.898438 106.753906 C 10.707031 106.753906 9.5625 106.277344 8.71875 105.433594 C 7.875 104.589844 7.402344 103.445312 7.402344 102.253906 L 7.402344 47.746094 C 7.402344 46.554688 7.875 45.410156 8.71875 44.566406 C 9.5625 43.722656 10.707031 43.246094 11.898438 43.246094 Z M 11.898438 43.246094 " clip-rule="nonzero"/></clipPath><clipPath id="93880b47aa"><path d="M 14.167969 47.335938 L 59 47.335938 L 59 102.820312 L 14.167969 102.820312 Z M 14.167969 47.335938 " clip-rule="nonzero"/></clipPath><clipPath id="ee7a592bd1"><path d="M 14 57 L 43 57 L 43 84 L 14 84 Z M 14 57 " clip-rule="nonzero"/></clipPath><clipPath id="dee837c09b"><path d="M 24.582031 51.410156 L 61.390625 83.351562 L 48.121094 98.640625 L 11.3125 66.699219 Z M 24.582031 51.410156 " clip-rule="nonzero"/></clipPath><clipPath id="6b1357e268"><path d="M 24.582031 51.410156 L 61.390625 83.351562 L 48.121094 98.640625 L 11.3125 66.699219 Z M 24.582031 51.410156 " clip-rule="nonzero"/></clipPath><clipPath id="b1d65d1bd1"><path d="M 30 66 L 59 66 L 59 93 L 30 93 Z M 30 66 " clip-rule="nonzero"/></clipPath><clipPath id="37700ef0af"><path d="M 24.582031 51.410156 L 61.390625 83.351562 L 48.121094 98.640625 L 11.3125 66.699219 Z M 24.582031 51.410156 " clip-rule="nonzero"/></clipPath><clipPath id="08a35260d0"><path d="M 24.582031 51.410156 L 61.390625 83.351562 L 48.121094 98.640625 L 11.3125 66.699219 Z M 24.582031 51.410156 " clip-rule="nonzero"/></clipPath><clipPath id="1eb24633b4"><path d="M 209.304688 47.335938 L 244.546875 47.335938 L 244.546875 82.574219 L 209.304688 82.574219 Z M 209.304688 47.335938 " clip-rule="nonzero"/></clipPath><clipPath id="47b3b7a881"><path d="M 215.9375 56 L 225 56 L 225 73 L 215.9375 73 Z M 215.9375 56 " clip-rule="nonzero"/></clipPath><clipPath id="39ce1440e0"><path d="M 223 73 L 234 73 L 234 76.003906 L 223 76.003906 Z M 223 73 " clip-rule="nonzero"/></clipPath><clipPath id="fe21a01f6a"><path d="M 220 55.011719 L 226 55.011719 L 226 60 L 220 60 Z M 220 55.011719 " clip-rule="nonzero"/></clipPath><clipPath id="33a8fd32d7"><path d="M 235 68 L 237.683594 68 L 237.683594 72 L 235 72 Z M 235 68 " clip-rule="nonzero"/></clipPath><clipPath id="7715ceffb9"><path d="M 230 55.011719 L 232 55.011719 L 232 58 L 230 58 Z M 230 55.011719 " clip-rule="nonzero"/></clipPath><clipPath id="205a163733"><path d="M 236 66 L 237.683594 66 L 237.683594 68 L 236 68 Z M 236 66 " clip-rule="nonzero"/></clipPath><clipPath id="b9e836aa03"><path d="M 236 64 L 237.683594 64 L 237.683594 66 L 236 66 Z M 236 64 " clip-rule="nonzero"/></clipPath><clipPath id="e3699fce3a"><path d="M 237 65 L 237.683594 65 L 237.683594 67 L 237 67 Z M 237 65 " clip-rule="nonzero"/></clipPath><clipPath id="c1fb565b75"><path d="M 224 56 L 237.683594 56 L 237.683594 71 L 224 71 Z M 224 56 " clip-rule="nonzero"/></clipPath></defs><g clip-path="url(#b742e056c5)"><g clip-path="url(#7d50a50a3e)"><path fill="#ff914d" d="M 7.402344 43.246094 L 65.609375 43.246094 L 65.609375 106.6875 L 7.402344 106.6875 Z M 7.402344 43.246094 " fill-opacity="1" fill-rule="nonzero"/></g></g><g clip-path="url(#93880b47aa)"><path fill="#ffffff" d="M 56.230469 100.414062 L 54.421875 102.621094 L 17.003906 71.921875 L 17.003906 102.621094 L 14.167969 102.621094 L 14.167969 65.832031 Z M 16.773438 49.578125 L 18.582031 47.371094 L 56 78.070312 L 56 47.371094 L 58.839844 47.371094 L 58.839844 84.144531 Z M 16.773438 49.578125 " fill-opacity="1" fill-rule="nonzero"/></g><g clip-path="url(#ee7a592bd1)"><g clip-path="url(#dee837c09b)"><g clip-path="url(#6b1357e268)"><path fill="#ffffff" d="M 41.796875 77.148438 L 38.445312 81.007812 C 38.15625 81.34375 37.839844 81.644531 37.488281 81.917969 C 37.140625 82.1875 36.769531 82.421875 36.375 82.617188 C 35.980469 82.816406 35.570312 82.972656 35.144531 83.089844 C 34.71875 83.207031 34.289062 83.28125 33.847656 83.3125 C 33.40625 83.34375 32.96875 83.332031 32.53125 83.277344 C 32.09375 83.222656 31.664062 83.125 31.246094 82.984375 C 30.828125 82.84375 30.425781 82.667969 30.042969 82.449219 C 29.660156 82.230469 29.300781 81.976562 28.96875 81.6875 L 16.546875 70.90625 C 16.214844 70.617188 15.914062 70.296875 15.640625 69.949219 C 15.371094 69.601562 15.136719 69.230469 14.941406 68.832031 C 14.746094 68.4375 14.585938 68.027344 14.472656 67.605469 C 14.355469 67.179688 14.28125 66.746094 14.25 66.304688 C 14.21875 65.863281 14.234375 65.425781 14.289062 64.988281 C 14.34375 64.550781 14.441406 64.125 14.582031 63.703125 C 14.722656 63.285156 14.902344 62.886719 15.121094 62.503906 C 15.339844 62.121094 15.59375 61.761719 15.882812 61.429688 L 17.171875 59.945312 C 17.460938 59.613281 17.777344 59.3125 18.128906 59.042969 C 18.476562 58.773438 18.847656 58.539062 19.242188 58.339844 C 19.636719 58.144531 20.042969 57.988281 20.46875 57.871094 C 20.894531 57.753906 21.328125 57.679688 21.765625 57.648438 C 22.207031 57.617188 22.644531 57.632812 23.082031 57.6875 C 23.519531 57.742188 23.945312 57.839844 24.363281 57.980469 C 24.78125 58.117188 25.183594 58.296875 25.566406 58.515625 C 25.949219 58.734375 26.308594 58.988281 26.640625 59.277344 L 33.160156 64.933594 C 33.359375 65.109375 33.519531 65.3125 33.636719 65.550781 C 33.753906 65.789062 33.824219 66.039062 33.84375 66.300781 C 33.863281 66.566406 33.828125 66.824219 33.746094 67.074219 C 33.660156 67.328125 33.53125 67.554688 33.359375 67.753906 L 33.195312 67.941406 C 33.019531 68.144531 32.816406 68.300781 32.578125 68.421875 C 32.339844 68.539062 32.089844 68.609375 31.824219 68.625 C 31.5625 68.644531 31.304688 68.613281 31.050781 68.527344 C 30.800781 68.445312 30.574219 68.316406 30.375 68.140625 L 23.574219 62.242188 C 23.339844 62.039062 23.078125 61.886719 22.78125 61.789062 C 22.488281 61.691406 22.1875 61.652344 21.875 61.675781 C 21.566406 61.699219 21.273438 61.78125 20.996094 61.917969 C 20.71875 62.058594 20.480469 62.246094 20.277344 62.480469 L 18.828125 64.152344 C 18.625 64.386719 18.476562 64.652344 18.378906 64.945312 C 18.28125 65.238281 18.242188 65.539062 18.265625 65.84375 C 18.289062 66.152344 18.367188 66.445312 18.503906 66.722656 C 18.644531 67 18.828125 67.238281 19.0625 67.441406 L 32.042969 78.703125 C 32.273438 78.90625 32.539062 79.054688 32.832031 79.15625 C 33.125 79.253906 33.425781 79.292969 33.734375 79.269531 C 34.042969 79.25 34.332031 79.167969 34.609375 79.03125 C 34.886719 78.894531 35.125 78.707031 35.328125 78.476562 L 38.765625 74.519531 C 38.9375 74.316406 39.144531 74.160156 39.378906 74.039062 C 39.617188 73.921875 39.867188 73.851562 40.132812 73.835938 C 40.394531 73.816406 40.652344 73.847656 40.90625 73.933594 C 41.15625 74.015625 41.382812 74.144531 41.582031 74.320312 C 41.785156 74.492188 41.945312 74.699219 42.066406 74.933594 C 42.183594 75.171875 42.253906 75.425781 42.273438 75.691406 C 42.296875 75.957031 42.261719 76.214844 42.179688 76.46875 C 42.097656 76.71875 41.96875 76.949219 41.796875 77.148438 Z M 41.796875 77.148438 " fill-opacity="1" fill-rule="nonzero"/></g></g></g><g clip-path="url(#b1d65d1bd1)"><g clip-path="url(#37700ef0af)"><g clip-path="url(#08a35260d0)"><path fill="#ffffff" d="M 31.226562 72.84375 L 34.578125 68.984375 C 34.867188 68.648438 35.183594 68.347656 35.53125 68.078125 C 35.882812 67.808594 36.25 67.574219 36.644531 67.378906 C 37.039062 67.179688 37.449219 67.023438 37.875 66.90625 C 38.300781 66.792969 38.730469 66.71875 39.171875 66.6875 C 39.609375 66.65625 40.046875 66.667969 40.484375 66.722656 C 40.921875 66.777344 41.351562 66.875 41.769531 67.015625 C 42.1875 67.152344 42.585938 67.332031 42.96875 67.550781 C 43.351562 67.769531 43.710938 68.023438 44.042969 68.308594 L 56.464844 79.089844 C 56.796875 79.378906 57.097656 79.699219 57.371094 80.046875 C 57.640625 80.394531 57.875 80.765625 58.070312 81.160156 C 58.265625 81.554688 58.425781 81.964844 58.539062 82.390625 C 58.65625 82.8125 58.730469 83.246094 58.761719 83.6875 C 58.792969 84.125 58.78125 84.5625 58.726562 85 C 58.671875 85.4375 58.574219 85.867188 58.433594 86.285156 C 58.292969 86.703125 58.117188 87.101562 57.898438 87.484375 C 57.679688 87.867188 57.425781 88.226562 57.136719 88.558594 L 55.847656 90.042969 C 55.558594 90.375 55.242188 90.675781 54.894531 90.945312 C 54.542969 91.214844 54.171875 91.449219 53.78125 91.648438 C 53.386719 91.84375 52.976562 92 52.550781 92.117188 C 52.125 92.230469 51.695312 92.304688 51.253906 92.335938 C 50.816406 92.367188 50.375 92.355469 49.941406 92.300781 C 49.503906 92.246094 49.074219 92.148438 48.65625 92.007812 C 48.238281 91.871094 47.839844 91.691406 47.457031 91.472656 C 47.074219 91.253906 46.714844 91 46.382812 90.714844 L 39.863281 85.054688 C 39.664062 84.882812 39.503906 84.675781 39.386719 84.441406 C 39.269531 84.203125 39.199219 83.953125 39.179688 83.6875 C 39.164062 83.425781 39.195312 83.167969 39.277344 82.914062 C 39.363281 82.664062 39.492188 82.4375 39.664062 82.238281 L 39.828125 82.050781 C 40.003906 81.847656 40.207031 81.691406 40.445312 81.570312 C 40.683594 81.453125 40.933594 81.382812 41.199219 81.367188 C 41.460938 81.347656 41.71875 81.378906 41.972656 81.464844 C 42.222656 81.546875 42.449219 81.675781 42.648438 81.851562 L 49.445312 87.75 C 49.679688 87.953125 49.945312 88.105469 50.242188 88.203125 C 50.535156 88.300781 50.839844 88.335938 51.148438 88.316406 C 51.457031 88.292969 51.75 88.210938 52.027344 88.070312 C 52.304688 87.929688 52.546875 87.742188 52.75 87.507812 L 54.1875 85.847656 C 54.390625 85.613281 54.542969 85.347656 54.640625 85.054688 C 54.738281 84.761719 54.777344 84.460938 54.753906 84.152344 C 54.730469 83.84375 54.652344 83.550781 54.511719 83.273438 C 54.375 82.996094 54.1875 82.757812 53.953125 82.554688 L 40.976562 71.292969 C 40.742188 71.089844 40.480469 70.9375 40.1875 70.839844 C 39.890625 70.742188 39.589844 70.703125 39.28125 70.726562 C 38.972656 70.746094 38.679688 70.828125 38.40625 70.964844 C 38.128906 71.105469 37.886719 71.289062 37.683594 71.523438 L 34.253906 75.476562 C 34.078125 75.675781 33.875 75.835938 33.636719 75.957031 C 33.402344 76.074219 33.148438 76.140625 32.886719 76.160156 C 32.621094 76.179688 32.363281 76.148438 32.113281 76.0625 C 31.859375 75.980469 31.636719 75.851562 31.433594 75.675781 C 31.230469 75.503906 31.070312 75.296875 30.949219 75.058594 C 30.828125 74.820312 30.757812 74.570312 30.738281 74.304688 C 30.71875 74.039062 30.753906 73.777344 30.835938 73.527344 C 30.921875 73.273438 31.050781 73.046875 31.226562 72.84375 Z M 31.226562 72.84375 " fill-opacity="1" fill-rule="nonzero"/></g></g></g><g fill="#ff873d" fill-opacity="1"><g transform="translate(73.98797, 74.226924)"><g><path d="M 2.9375 -21.125 L 2.9375 -21.390625 L 6.6875 -21.390625 C 9.175781 -21.390625 10.421875 -21.367188 10.421875 -21.328125 C 10.421875 -21.273438 10.65625 -20.816406 11.125 -19.953125 C 11.925781 -18.460938 12.898438 -16.566406 14.046875 -14.265625 C 15.203125 -11.972656 16.515625 -9.234375 17.984375 -6.046875 C 18.378906 -5.203125 18.675781 -4.5625 18.875 -4.125 C 19.082031 -3.6875 19.207031 -3.4375 19.25 -3.375 L 19.390625 -3.078125 L 19.34375 -12.234375 L 19.34375 -21.390625 L 25.09375 -21.390625 L 25.09375 -13.53125 C 25.070312 -10.34375 25.054688 -7.71875 25.046875 -5.65625 C 25.035156 -3.601562 25.03125 -2.109375 25.03125 -1.171875 L 25 3.34375 L 24.765625 3.375 C 24.648438 3.394531 23.476562 3.40625 21.25 3.40625 C 20.164062 3.382812 19.335938 3.375 18.765625 3.375 C 18.203125 3.375 17.894531 3.363281 17.84375 3.34375 C 17.800781 3.320312 17.664062 3.113281 17.4375 2.71875 C 17.21875 2.332031 16.953125 1.847656 16.640625 1.265625 C 16.328125 0.691406 16 0.0625 15.65625 -0.625 C 15.3125 -1.320312 14.976562 -1.976562 14.65625 -2.59375 C 14.332031 -3.207031 14.050781 -3.742188 13.8125 -4.203125 C 13.582031 -4.671875 13.4375 -4.972656 13.375 -5.109375 C 12.675781 -6.535156 11.957031 -8.015625 11.21875 -9.546875 C 10.488281 -11.085938 9.757812 -12.695312 9.03125 -14.375 L 8.21875 -16.203125 L 8.25 -10.796875 C 8.25 -10.660156 8.25 -10.226562 8.25 -9.5 C 8.25 -8.78125 8.257812 -7.765625 8.28125 -6.453125 C 8.3125 -5.109375 8.328125 -3.984375 8.328125 -3.078125 C 8.328125 -2.179688 8.328125 -1.507812 8.328125 -1.0625 L 8.390625 3.34375 L 7.953125 3.375 C 7.796875 3.394531 7.488281 3.40625 7.03125 3.40625 C 6.570312 3.40625 5.957031 3.40625 5.1875 3.40625 C 3.664062 3.40625 2.863281 3.382812 2.78125 3.34375 C 2.6875 3.300781 2.660156 2.242188 2.703125 0.171875 C 2.722656 -1.640625 2.738281 -3.472656 2.75 -5.328125 C 2.769531 -7.191406 2.789062 -9.082031 2.8125 -11 C 2.832031 -16.632812 2.863281 -19.617188 2.90625 -19.953125 C 2.925781 -20.304688 2.9375 -20.578125 2.9375 -20.765625 C 2.9375 -20.960938 2.9375 -21.082031 2.9375 -21.125 Z M 2.9375 -21.125 "/></g></g></g><g fill="#ff873d" fill-opacity="1"><g transform="translate(101.762946, 74.226924)"><g/></g></g><g fill="#ff873d" fill-opacity="1"><g transform="translate(113.461184, 74.226924)"><g><path d="M 1 -21.296875 L 21.25 -21.296875 L 21.25 -16.71875 L 14 -16.71875 L 14 -6.8125 L 13.96875 3.40625 L 8.484375 3.40625 L 8.421875 -16.671875 L 4.71875 -16.71875 L 1 -16.71875 Z M 1 -21.296875 "/></g></g></g><g fill="#ff873d" fill-opacity="1"><g transform="translate(135.721269, 74.226924)"><g><path d="M 2.734375 -21.296875 C 2.765625 -21.316406 5.742188 -21.328125 11.671875 -21.328125 L 20.59375 -21.328125 L 20.59375 -16.90625 L 14.34375 -16.90625 L 8.09375 -16.875 L 8.0625 -14.40625 L 8.0625 -11.96875 L 19.515625 -11.96875 L 19.515625 -7.390625 L 8.09375 -7.390625 L 8.0625 -4.78125 L 8.0625 -2.234375 L 20.953125 -2.234375 L 20.953125 0.46875 L 20.921875 3.203125 L 11.828125 3.234375 L 2.671875 3.234375 L 2.671875 -9.03125 C 2.671875 -17.15625 2.691406 -21.242188 2.734375 -21.296875 Z M 2.734375 -21.296875 "/></g></g></g><g fill="#ff873d" fill-opacity="1"><g transform="translate(158.014776, 74.226924)"><g><path d="M 15.109375 -21.65625 C 17.128906 -21.65625 19.164062 -21.363281 21.21875 -20.78125 L 21.6875 -20.65625 L 21.6875 -17.984375 C 21.6875 -16.203125 21.675781 -15.3125 21.65625 -15.3125 C 21.632812 -15.3125 21.597656 -15.332031 21.546875 -15.375 C 21.503906 -15.414062 21.421875 -15.484375 21.296875 -15.578125 C 20.953125 -15.816406 20.539062 -16.023438 20.0625 -16.203125 C 19.582031 -16.390625 19.085938 -16.535156 18.578125 -16.640625 C 18.066406 -16.753906 17.550781 -16.835938 17.03125 -16.890625 C 16.507812 -16.953125 16.035156 -16.984375 15.609375 -16.984375 C 12.828125 -16.984375 10.75 -16.332031 9.375 -15.03125 C 8 -13.738281 7.269531 -11.757812 7.1875 -9.09375 C 7.164062 -8.550781 7.160156 -8.066406 7.171875 -7.640625 C 7.179688 -7.222656 7.21875 -6.835938 7.28125 -6.484375 C 7.4375 -5.660156 7.851562 -4.929688 8.53125 -4.296875 C 9.21875 -3.660156 9.9375 -3.195312 10.6875 -2.90625 C 11.226562 -2.707031 11.832031 -2.554688 12.5 -2.453125 C 13.164062 -2.359375 13.859375 -2.3125 14.578125 -2.3125 C 15.640625 -2.3125 16.671875 -2.414062 17.671875 -2.625 C 18.679688 -2.832031 19.664062 -3.171875 20.625 -3.640625 C 20.9375 -3.796875 21.175781 -3.921875 21.34375 -4.015625 C 21.507812 -4.117188 21.601562 -4.171875 21.625 -4.171875 C 21.644531 -4.171875 21.660156 -3.859375 21.671875 -3.234375 C 21.679688 -2.617188 21.6875 -1.875 21.6875 -1 L 21.6875 2.203125 L 21.15625 2.40625 C 20.15625 2.78125 19.085938 3.050781 17.953125 3.21875 C 16.816406 3.382812 15.710938 3.46875 14.640625 3.46875 C 13.429688 3.46875 12.242188 3.367188 11.078125 3.171875 C 9.910156 2.972656 8.8125 2.640625 7.78125 2.171875 C 6.757812 1.703125 5.835938 1.066406 5.015625 0.265625 C 4.191406 -0.535156 3.523438 -1.535156 3.015625 -2.734375 C 2.628906 -3.628906 2.359375 -4.582031 2.203125 -5.59375 C 2.046875 -6.613281 1.988281 -7.722656 2.03125 -8.921875 C 2.082031 -10.253906 2.203125 -11.453125 2.390625 -12.515625 C 2.578125 -13.578125 2.882812 -14.519531 3.3125 -15.34375 C 3.882812 -16.476562 4.59375 -17.445312 5.4375 -18.25 C 6.289062 -19.050781 7.222656 -19.703125 8.234375 -20.203125 C 9.253906 -20.703125 10.347656 -21.066406 11.515625 -21.296875 C 12.679688 -21.535156 13.878906 -21.65625 15.109375 -21.65625 Z M 15.109375 -21.65625 "/></g></g></g><g fill="#ff873d" fill-opacity="1"><g transform="translate(181.411269, 74.226924)"><g><path d="M 2.671875 -21.328125 C 2.710938 -21.367188 3.660156 -21.390625 5.515625 -21.390625 L 8.359375 -21.390625 L 8.359375 -12.96875 L 19.046875 -12.96875 L 19.046875 -21.390625 L 24.765625 -21.390625 C 24.765625 -17.242188 24.773438 -13.109375 24.796875 -8.984375 C 24.816406 -4.867188 24.804688 -0.738281 24.765625 3.40625 L 19.15625 3.40625 L 19.078125 -8.125 L 13.734375 -8.125 L 8.359375 -8.15625 L 8.359375 3.40625 L 2.671875 3.40625 Z M 2.671875 -21.328125 "/></g></g></g><g fill="#ff873d" fill-opacity="1"><g transform="translate(208.893145, 74.226924)"><g/></g></g><g fill="#ff873d" fill-opacity="1"><g transform="translate(220.591383, 74.226924)"><g/></g></g><g fill="#ff873d" fill-opacity="1"><g transform="translate(232.289621, 74.226924)"><g/></g></g><g fill="#ff873d" fill-opacity="1"><g transform="translate(243.990571, 74.226924)"><g><path d="M 2.9375 -21.125 L 2.9375 -21.390625 L 6.6875 -21.390625 C 9.175781 -21.390625 10.421875 -21.367188 10.421875 -21.328125 C 10.421875 -21.273438 10.65625 -20.816406 11.125 -19.953125 C 11.925781 -18.460938 12.898438 -16.566406 14.046875 -14.265625 C 15.203125 -11.972656 16.515625 -9.234375 17.984375 -6.046875 C 18.378906 -5.203125 18.675781 -4.5625 18.875 -4.125 C 19.082031 -3.6875 19.207031 -3.4375 19.25 -3.375 L 19.390625 -3.078125 L 19.34375 -12.234375 L 19.34375 -21.390625 L 25.09375 -21.390625 L 25.09375 -13.53125 C 25.070312 -10.34375 25.054688 -7.71875 25.046875 -5.65625 C 25.035156 -3.601562 25.03125 -2.109375 25.03125 -1.171875 L 25 3.34375 L 24.765625 3.375 C 24.648438 3.394531 23.476562 3.40625 21.25 3.40625 C 20.164062 3.382812 19.335938 3.375 18.765625 3.375 C 18.203125 3.375 17.894531 3.363281 17.84375 3.34375 C 17.800781 3.320312 17.664062 3.113281 17.4375 2.71875 C 17.21875 2.332031 16.953125 1.847656 16.640625 1.265625 C 16.328125 0.691406 16 0.0625 15.65625 -0.625 C 15.3125 -1.320312 14.976562 -1.976562 14.65625 -2.59375 C 14.332031 -3.207031 14.050781 -3.742188 13.8125 -4.203125 C 13.582031 -4.671875 13.4375 -4.972656 13.375 -5.109375 C 12.675781 -6.535156 11.957031 -8.015625 11.21875 -9.546875 C 10.488281 -11.085938 9.757812 -12.695312 9.03125 -14.375 L 8.21875 -16.203125 L 8.25 -10.796875 C 8.25 -10.660156 8.25 -10.226562 8.25 -9.5 C 8.25 -8.78125 8.257812 -7.765625 8.28125 -6.453125 C 8.3125 -5.109375 8.328125 -3.984375 8.328125 -3.078125 C 8.328125 -2.179688 8.328125 -1.507812 8.328125 -1.0625 L 8.390625 3.34375 L 7.953125 3.375 C 7.796875 3.394531 7.488281 3.40625 7.03125 3.40625 C 6.570312 3.40625 5.957031 3.40625 5.1875 3.40625 C 3.664062 3.40625 2.863281 3.382812 2.78125 3.34375 C 2.6875 3.300781 2.660156 2.242188 2.703125 0.171875 C 2.722656 -1.640625 2.738281 -3.472656 2.75 -5.328125 C 2.769531 -7.191406 2.789062 -9.082031 2.8125 -11 C 2.832031 -16.632812 2.863281 -19.617188 2.90625 -19.953125 C 2.925781 -20.304688 2.9375 -20.578125 2.9375 -20.765625 C 2.9375 -20.960938 2.9375 -21.082031 2.9375 -21.125 Z M 2.9375 -21.125 "/></g></g></g><g fill="#ff873d" fill-opacity="1"><g transform="translate(271.765547, 74.226924)"><g><path d="M 14.375 -17.375 C 12.613281 -17.375 11.222656 -17.039062 10.203125 -16.375 C 9.191406 -15.707031 8.53125 -14.492188 8.21875 -12.734375 C 8.132812 -12.304688 8.09375 -11.378906 8.09375 -9.953125 C 8.070312 -9.242188 8.066406 -8.640625 8.078125 -8.140625 C 8.085938 -7.640625 8.101562 -7.234375 8.125 -6.921875 C 8.226562 -5.515625 8.554688 -4.441406 9.109375 -3.703125 C 9.671875 -2.972656 10.507812 -2.453125 11.625 -2.140625 C 11.957031 -2.046875 12.582031 -2 13.5 -2 C 14.03125 -2 14.554688 -2.039062 15.078125 -2.125 C 15.609375 -2.21875 16.097656 -2.375 16.546875 -2.59375 C 16.992188 -2.820312 17.378906 -3.128906 17.703125 -3.515625 C 18.023438 -3.910156 18.265625 -4.410156 18.421875 -5.015625 C 18.503906 -5.285156 18.59375 -5.875 18.6875 -6.78125 C 18.789062 -7.695312 18.84375 -8.957031 18.84375 -10.5625 C 18.84375 -11.363281 18.789062 -12.160156 18.6875 -12.953125 C 18.59375 -13.742188 18.390625 -14.457031 18.078125 -15.09375 C 17.765625 -15.726562 17.3125 -16.25 16.71875 -16.65625 C 16.132812 -17.070312 15.351562 -17.3125 14.375 -17.375 Z M 12.40625 -21.59375 C 12.914062 -21.632812 13.335938 -21.632812 13.671875 -21.59375 C 14.429688 -21.570312 15.179688 -21.519531 15.921875 -21.4375 C 16.671875 -21.363281 17.394531 -21.21875 18.09375 -21 C 18.800781 -20.789062 19.476562 -20.507812 20.125 -20.15625 C 20.769531 -19.800781 21.359375 -19.332031 21.890625 -18.75 C 23.253906 -17.394531 24.085938 -15.578125 24.390625 -13.296875 C 24.460938 -12.742188 24.5 -11.351562 24.5 -9.125 C 24.476562 -7.988281 24.453125 -7.085938 24.421875 -6.421875 C 24.398438 -5.753906 24.367188 -5.296875 24.328125 -5.046875 C 24.085938 -3.617188 23.679688 -2.316406 23.109375 -1.140625 C 22.546875 0.0234375 21.640625 1.019531 20.390625 1.84375 C 19.546875 2.414062 18.566406 2.851562 17.453125 3.15625 C 16.335938 3.457031 15.078125 3.609375 13.671875 3.609375 C 10.109375 3.609375 7.34375 2.773438 5.375 1.109375 C 3.414062 -0.546875 2.316406 -3.234375 2.078125 -6.953125 C 2.046875 -7.304688 2.023438 -7.734375 2.015625 -8.234375 C 2.003906 -8.734375 2.007812 -9.304688 2.03125 -9.953125 C 2.0625 -10.960938 2.132812 -11.925781 2.25 -12.84375 C 2.375 -13.769531 2.597656 -14.648438 2.921875 -15.484375 C 3.242188 -16.328125 3.671875 -17.109375 4.203125 -17.828125 C 4.742188 -18.554688 5.445312 -19.21875 6.3125 -19.8125 C 7.914062 -20.863281 9.945312 -21.457031 12.40625 -21.59375 Z M 12.40625 -21.59375 "/></g></g></g><g fill="#ff873d" fill-opacity="1"><g transform="translate(298.270425, 74.226924)"><g><path d="M 2.671875 -9.03125 L 2.671875 -21.390625 L 8.28125 -21.390625 L 8.28125 -2.078125 L 19.3125 -2.078125 L 19.3125 0.671875 L 19.28125 3.375 L 2.703125 3.375 Z M 2.671875 -9.03125 "/></g></g></g><g fill="#ff873d" fill-opacity="1"><g transform="translate(318.491671, 74.226924)"><g><path d="M 14.375 -17.375 C 12.613281 -17.375 11.222656 -17.039062 10.203125 -16.375 C 9.191406 -15.707031 8.53125 -14.492188 8.21875 -12.734375 C 8.132812 -12.304688 8.09375 -11.378906 8.09375 -9.953125 C 8.070312 -9.242188 8.066406 -8.640625 8.078125 -8.140625 C 8.085938 -7.640625 8.101562 -7.234375 8.125 -6.921875 C 8.226562 -5.515625 8.554688 -4.441406 9.109375 -3.703125 C 9.671875 -2.972656 10.507812 -2.453125 11.625 -2.140625 C 11.957031 -2.046875 12.582031 -2 13.5 -2 C 14.03125 -2 14.554688 -2.039062 15.078125 -2.125 C 15.609375 -2.21875 16.097656 -2.375 16.546875 -2.59375 C 16.992188 -2.820312 17.378906 -3.128906 17.703125 -3.515625 C 18.023438 -3.910156 18.265625 -4.410156 18.421875 -5.015625 C 18.503906 -5.285156 18.59375 -5.875 18.6875 -6.78125 C 18.789062 -7.695312 18.84375 -8.957031 18.84375 -10.5625 C 18.84375 -11.363281 18.789062 -12.160156 18.6875 -12.953125 C 18.59375 -13.742188 18.390625 -14.457031 18.078125 -15.09375 C 17.765625 -15.726562 17.3125 -16.25 16.71875 -16.65625 C 16.132812 -17.070312 15.351562 -17.3125 14.375 -17.375 Z M 12.40625 -21.59375 C 12.914062 -21.632812 13.335938 -21.632812 13.671875 -21.59375 C 14.429688 -21.570312 15.179688 -21.519531 15.921875 -21.4375 C 16.671875 -21.363281 17.394531 -21.21875 18.09375 -21 C 18.800781 -20.789062 19.476562 -20.507812 20.125 -20.15625 C 20.769531 -19.800781 21.359375 -19.332031 21.890625 -18.75 C 23.253906 -17.394531 24.085938 -15.578125 24.390625 -13.296875 C 24.460938 -12.742188 24.5 -11.351562 24.5 -9.125 C 24.476562 -7.988281 24.453125 -7.085938 24.421875 -6.421875 C 24.398438 -5.753906 24.367188 -5.296875 24.328125 -5.046875 C 24.085938 -3.617188 23.679688 -2.316406 23.109375 -1.140625 C 22.546875 0.0234375 21.640625 1.019531 20.390625 1.84375 C 19.546875 2.414062 18.566406 2.851562 17.453125 3.15625 C 16.335938 3.457031 15.078125 3.609375 13.671875 3.609375 C 10.109375 3.609375 7.34375 2.773438 5.375 1.109375 C 3.414062 -0.546875 2.316406 -3.234375 2.078125 -6.953125 C 2.046875 -7.304688 2.023438 -7.734375 2.015625 -8.234375 C 2.003906 -8.734375 2.007812 -9.304688 2.03125 -9.953125 C 2.0625 -10.960938 2.132812 -11.925781 2.25 -12.84375 C 2.375 -13.769531 2.597656 -14.648438 2.921875 -15.484375 C 3.242188 -16.328125 3.671875 -17.109375 4.203125 -17.828125 C 4.742188 -18.554688 5.445312 -19.21875 6.3125 -19.8125 C 7.914062 -20.863281 9.945312 -21.457031 12.40625 -21.59375 Z M 12.40625 -21.59375 "/></g></g></g><g fill="#ff873d" fill-opacity="1"><g transform="translate(344.996548, 74.226924)"><g><path d="M 15 -21.5625 C 17.144531 -21.5625 19.242188 -21.269531 21.296875 -20.6875 L 22.03125 -20.484375 L 22.03125 -16.34375 L 21.6875 -16.375 C 20.800781 -16.488281 19.910156 -16.59375 19.015625 -16.6875 C 18.128906 -16.789062 17.238281 -16.84375 16.34375 -16.84375 C 15.226562 -16.84375 14.132812 -16.722656 13.0625 -16.484375 C 12 -16.253906 11 -15.816406 10.0625 -15.171875 C 8.226562 -13.898438 7.367188 -11.5625 7.484375 -8.15625 C 7.503906 -7.78125 7.53125 -7.378906 7.5625 -6.953125 C 7.601562 -6.523438 7.644531 -6.203125 7.6875 -5.984375 C 7.90625 -5.203125 8.234375 -4.535156 8.671875 -3.984375 C 9.109375 -3.441406 9.613281 -3.003906 10.1875 -2.671875 C 10.769531 -2.335938 11.410156 -2.09375 12.109375 -1.9375 C 12.816406 -1.78125 13.535156 -1.703125 14.265625 -1.703125 C 15.066406 -1.703125 15.710938 -1.773438 16.203125 -1.921875 C 16.691406 -2.066406 17.070312 -2.296875 17.34375 -2.609375 C 17.613281 -2.921875 17.789062 -3.320312 17.875 -3.8125 C 17.96875 -4.300781 18.015625 -4.898438 18.015625 -5.609375 L 18.015625 -7.3125 L 12.40625 -7.3125 L 12.40625 -11.765625 L 23.390625 -11.765625 L 23.421875 -9.03125 C 23.453125 -7.78125 23.457031 -6.757812 23.4375 -5.96875 C 23.425781 -5.175781 23.410156 -4.613281 23.390625 -4.28125 C 23.328125 -2.875 23.035156 -1.671875 22.515625 -0.671875 C 22.003906 0.328125 21.328125 1.144531 20.484375 1.78125 C 19.640625 2.414062 18.65625 2.878906 17.53125 3.171875 C 16.40625 3.460938 15.207031 3.609375 13.9375 3.609375 C 12.394531 3.609375 10.953125 3.398438 9.609375 2.984375 C 8.265625 2.578125 7.070312 1.96875 6.03125 1.15625 C 5 0.34375 4.144531 -0.664062 3.46875 -1.875 C 2.800781 -3.09375 2.367188 -4.519531 2.171875 -6.15625 C 1.972656 -7.726562 1.96875 -9.285156 2.15625 -10.828125 C 2.34375 -12.367188 2.726562 -13.757812 3.3125 -15 C 3.84375 -16.363281 4.601562 -17.457031 5.59375 -18.28125 C 6.582031 -19.101562 7.75 -19.785156 9.09375 -20.328125 C 10.050781 -20.703125 11.019531 -21 12 -21.21875 C 12.976562 -21.445312 13.976562 -21.5625 15 -21.5625 Z M 15 -21.5625 "/></g></g></g><g fill="#ff873d" fill-opacity="1"><g transform="translate(370.197904, 74.226924)"><g><path d="M 2.734375 -21.328125 C 2.785156 -21.367188 3.734375 -21.390625 5.578125 -21.390625 L 8.390625 -21.390625 L 8.359375 -12.40625 C 8.335938 -9.414062 8.328125 -7.132812 8.328125 -5.5625 C 8.328125 -3.988281 8.3125 -3.09375 8.28125 -2.875 C 8.257812 -2.695312 8.25 -2.320312 8.25 -1.75 C 8.25 -1.1875 8.25 -0.425781 8.25 0.53125 L 8.25 3.40625 L 5.484375 3.40625 L 2.671875 3.375 L 2.703125 -8.921875 C 2.703125 -17.140625 2.710938 -21.273438 2.734375 -21.328125 Z M 2.734375 -21.328125 "/></g></g></g><g fill="#ff873d" fill-opacity="1"><g transform="translate(381.26111, 74.226924)"><g><path d="M 2.734375 -21.296875 C 2.765625 -21.316406 5.742188 -21.328125 11.671875 -21.328125 L 20.59375 -21.328125 L 20.59375 -16.90625 L 14.34375 -16.90625 L 8.09375 -16.875 L 8.0625 -14.40625 L 8.0625 -11.96875 L 19.515625 -11.96875 L 19.515625 -7.390625 L 8.09375 -7.390625 L 8.0625 -4.78125 L 8.0625 -2.234375 L 20.953125 -2.234375 L 20.953125 0.46875 L 20.921875 3.203125 L 11.828125 3.234375 L 2.671875 3.234375 L 2.671875 -9.03125 C 2.671875 -17.15625 2.691406 -21.242188 2.734375 -21.296875 Z M 2.734375 -21.296875 "/></g></g></g><g fill="#ff873d" fill-opacity="1"><g transform="translate(403.554618, 74.226924)"><g><path d="M 10.46875 -21.484375 C 11.800781 -21.484375 13.179688 -21.453125 14.609375 -21.390625 C 14.785156 -21.367188 15 -21.351562 15.25 -21.34375 C 15.507812 -21.332031 15.828125 -21.316406 16.203125 -21.296875 C 16.921875 -21.242188 17.359375 -21.207031 17.515625 -21.1875 L 18.953125 -21.125 L 18.921875 -16.078125 C 18.867188 -16.078125 18.597656 -16.113281 18.109375 -16.1875 C 17.617188 -16.269531 16.984375 -16.367188 16.203125 -16.484375 C 15.429688 -16.566406 14.660156 -16.632812 13.890625 -16.6875 C 13.117188 -16.75 12.34375 -16.78125 11.5625 -16.78125 C 11.164062 -16.78125 10.691406 -16.757812 10.140625 -16.71875 C 9.597656 -16.6875 9.085938 -16.597656 8.609375 -16.453125 C 8.128906 -16.316406 7.722656 -16.09375 7.390625 -15.78125 C 7.054688 -15.46875 6.890625 -15.019531 6.890625 -14.4375 C 6.890625 -13.90625 7.066406 -13.515625 7.421875 -13.265625 C 7.773438 -13.023438 8.175781 -12.847656 8.625 -12.734375 C 8.863281 -12.671875 9.21875 -12.601562 9.6875 -12.53125 C 10.15625 -12.46875 10.75 -12.390625 11.46875 -12.296875 C 12.664062 -12.160156 13.675781 -12.035156 14.5 -11.921875 C 15.320312 -11.816406 15.992188 -11.675781 16.515625 -11.5 C 17.265625 -11.25 17.914062 -10.894531 18.46875 -10.4375 C 19.03125 -9.988281 19.488281 -9.46875 19.84375 -8.875 C 20.207031 -8.28125 20.472656 -7.625 20.640625 -6.90625 C 20.804688 -6.195312 20.890625 -5.476562 20.890625 -4.75 C 20.890625 -4.363281 20.882812 -4.015625 20.875 -3.703125 C 20.863281 -3.390625 20.847656 -3.125 20.828125 -2.90625 C 20.640625 -1.59375 20.226562 -0.515625 19.59375 0.328125 C 18.96875 1.179688 18.195312 1.847656 17.28125 2.328125 C 16.363281 2.804688 15.347656 3.140625 14.234375 3.328125 C 13.117188 3.515625 11.992188 3.609375 10.859375 3.609375 C 9.347656 3.609375 7.832031 3.441406 6.3125 3.109375 C 4.800781 2.773438 3.34375 2.316406 1.9375 1.734375 L 1.703125 1.640625 L 1.671875 -1.203125 C 1.710938 -2.847656 1.742188 -3.671875 1.765625 -3.671875 C 1.859375 -3.671875 2.207031 -3.59375 2.8125 -3.4375 C 4.007812 -3.15625 5.207031 -2.921875 6.40625 -2.734375 C 7.613281 -2.554688 8.84375 -2.445312 10.09375 -2.40625 C 10.539062 -2.382812 10.925781 -2.378906 11.25 -2.390625 C 11.570312 -2.398438 11.820312 -2.414062 12 -2.4375 C 12.726562 -2.550781 13.316406 -2.738281 13.765625 -3 C 14.210938 -3.269531 14.5625 -3.617188 14.8125 -4.046875 C 14.9375 -4.304688 15 -4.695312 15 -5.21875 C 15 -5.925781 14.851562 -6.421875 14.5625 -6.703125 C 14.28125 -6.984375 13.769531 -7.1875 13.03125 -7.3125 C 12.851562 -7.363281 12.617188 -7.398438 12.328125 -7.421875 C 12.035156 -7.441406 11.679688 -7.472656 11.265625 -7.515625 C 9.546875 -7.722656 8.101562 -7.957031 6.9375 -8.21875 C 5.769531 -8.488281 4.816406 -8.835938 4.078125 -9.265625 C 3.097656 -9.816406 2.394531 -10.539062 1.96875 -11.4375 C 1.550781 -12.34375 1.34375 -13.398438 1.34375 -14.609375 C 1.34375 -16.191406 1.710938 -17.523438 2.453125 -18.609375 C 3.203125 -19.703125 4.242188 -20.472656 5.578125 -20.921875 C 6.359375 -21.191406 7.160156 -21.351562 7.984375 -21.40625 C 8.804688 -21.457031 9.632812 -21.484375 10.46875 -21.484375 Z M 10.46875 -21.484375 "/></g></g></g><g clip-path="url(#1eb24633b4)"><path fill="#ff873d" d="M 226.804688 47.339844 C 217.140625 47.339844 209.304688 55.175781 209.304688 64.839844 C 209.304688 74.503906 217.140625 82.335938 226.804688 82.335938 C 236.46875 82.335938 244.3125 74.503906 244.3125 64.839844 C 244.3125 55.175781 236.46875 47.339844 226.804688 47.339844 Z M 226.804688 80.976562 C 220.289062 80.976562 215.011719 73.75 215.011719 64.839844 C 215.011719 55.929688 220.289062 48.699219 226.804688 48.699219 C 233.320312 48.699219 238.605469 55.929688 238.605469 64.839844 C 238.605469 73.75 233.320312 80.976562 226.804688 80.976562 Z M 226.804688 80.976562 " fill-opacity="1" fill-rule="nonzero"/></g><g clip-path="url(#47b3b7a881)"><path fill="#3870c2" d="M 224.121094 67.078125 C 224.257812 66.953125 224.273438 66.679688 224.117188 66.605469 C 223.910156 66.507812 223.746094 66.308594 223.484375 66.320312 C 223.359375 66.324219 223.230469 66.28125 223.105469 66.246094 C 222.984375 66.207031 222.871094 66.136719 222.75 66.097656 C 222.621094 66.054688 222.507812 66.03125 222.464844 65.871094 C 222.375 65.542969 222.160156 65.363281 221.808594 65.34375 C 221.699219 65.335938 221.59375 65.265625 221.492188 65.210938 C 221.253906 65.089844 221.066406 64.828125 220.742188 64.945312 C 220.710938 64.957031 220.664062 64.921875 220.625 64.929688 C 220.390625 64.964844 220.179688 64.726562 219.9375 64.890625 C 219.929688 64.839844 219.925781 64.804688 219.921875 64.785156 C 219.648438 64.832031 219.429688 64.957031 219.253906 65.15625 C 219.117188 65.035156 219.007812 64.984375 218.832031 65.035156 C 218.589844 65.109375 218.421875 64.890625 218.5 64.640625 C 218.519531 64.574219 218.539062 64.507812 218.554688 64.457031 C 218.398438 64.183594 218.144531 64.394531 217.949219 64.316406 C 217.988281 64.09375 218.183594 63.929688 218.144531 63.652344 C 218.011719 63.703125 217.84375 63.722656 217.804688 63.800781 C 217.71875 63.972656 217.582031 64 217.429688 64.042969 C 217.183594 64.113281 216.949219 63.953125 216.925781 63.699219 C 216.90625 63.484375 217.042969 63.296875 217.035156 63.085938 C 217.035156 63.054688 217.09375 63.015625 217.128906 62.988281 C 217.175781 62.957031 217.226562 62.9375 217.273438 62.910156 C 217.441406 62.8125 217.601562 62.726562 217.804688 62.828125 C 217.867188 62.859375 218.007812 62.851562 218.042969 62.804688 C 218.171875 62.636719 218.320312 62.722656 218.464844 62.742188 C 218.519531 62.746094 218.566406 62.78125 218.621094 62.785156 C 218.730469 62.785156 218.769531 62.839844 218.777344 62.945312 C 218.789062 63.09375 218.863281 63.207031 218.984375 63.300781 C 219.089844 63.195312 219.089844 63.085938 219.054688 62.964844 C 218.953125 62.617188 218.96875 62.582031 219.285156 62.40625 C 219.3125 62.390625 219.34375 62.382812 219.367188 62.363281 C 219.460938 62.292969 219.570312 62.230469 219.632812 62.136719 C 219.664062 62.085938 219.613281 61.980469 219.605469 61.894531 C 219.601562 61.847656 219.609375 61.800781 219.613281 61.75 C 219.660156 61.800781 219.691406 61.839844 219.722656 61.875 C 219.75 61.84375 219.78125 61.8125 219.808594 61.78125 C 219.886719 61.695312 219.949219 61.566406 220.046875 61.535156 C 220.191406 61.488281 220.3125 61.4375 220.382812 61.296875 C 220.40625 61.253906 220.457031 61.214844 220.503906 61.195312 C 220.652344 61.128906 220.808594 61.074219 220.960938 61.015625 C 220.964844 61.015625 220.980469 61.027344 220.988281 61.03125 C 220.945312 61.078125 220.902344 61.125 220.835938 61.195312 C 220.925781 61.214844 220.988281 61.25 221.023438 61.230469 C 221.148438 61.175781 221.257812 61.101562 221.359375 61.042969 C 221.261719 60.964844 221.152344 60.914062 221.109375 60.832031 C 221.0625 60.742188 221.074219 60.621094 221.058594 60.496094 C 221.03125 60.496094 220.988281 60.484375 220.941406 60.484375 C 220.890625 60.484375 220.835938 60.492188 220.785156 60.496094 C 220.78125 60.476562 220.777344 60.460938 220.773438 60.445312 C 220.847656 60.417969 220.921875 60.378906 220.996094 60.375 C 221.121094 60.363281 221.25 60.386719 221.375 60.371094 C 221.476562 60.359375 221.59375 60.335938 221.671875 60.273438 C 221.75 60.210938 221.8125 60.191406 221.902344 60.21875 C 221.992188 60.101562 222.003906 60.003906 221.84375 59.929688 C 221.761719 59.890625 221.683594 59.839844 221.609375 59.785156 C 221.535156 59.730469 221.402344 59.65625 221.410156 59.605469 C 221.429688 59.445312 221.296875 59.371094 221.253906 59.253906 C 221.222656 59.171875 221.15625 59.097656 221.082031 58.984375 C 221.050781 59.03125 221.03125 59.089844 220.988281 59.121094 C 220.917969 59.167969 220.871094 59.285156 220.75 59.222656 C 220.648438 59.167969 220.535156 59.128906 220.5625 58.96875 C 220.570312 58.921875 220.519531 58.855469 220.476562 58.816406 C 220.417969 58.757812 220.34375 58.710938 220.269531 58.671875 C 220.222656 58.648438 220.167969 58.625 220.117188 58.625 C 219.996094 58.632812 219.875 58.65625 219.742188 58.675781 C 219.714844 58.832031 219.683594 58.996094 219.644531 59.203125 C 219.660156 59.226562 219.707031 59.300781 219.753906 59.367188 C 219.832031 59.480469 219.8125 59.597656 219.703125 59.65625 C 219.539062 59.746094 219.488281 59.855469 219.515625 60.035156 C 219.523438 60.078125 219.464844 60.171875 219.429688 60.171875 C 219.375 60.179688 219.28125 60.140625 219.261719 60.097656 C 219.210938 59.980469 219.195312 59.847656 219.164062 59.730469 C 218.996094 59.667969 218.820312 59.613281 218.648438 59.542969 C 218.535156 59.496094 218.4375 59.382812 218.328125 59.371094 C 218.089844 59.347656 218.097656 59.066406 217.90625 59.011719 C 217.902344 59.011719 217.90625 58.941406 217.921875 58.90625 C 218 58.746094 218.125 58.628906 218.277344 58.542969 C 218.324219 58.515625 218.382812 58.492188 218.402344 58.453125 C 218.457031 58.339844 218.519531 58.273438 218.65625 58.292969 C 218.6875 58.296875 218.734375 58.246094 218.757812 58.214844 C 218.8125 58.148438 218.851562 58.074219 218.898438 58.003906 C 219.132812 58.09375 219.277344 57.917969 219.441406 57.878906 C 219.410156 57.773438 219.382812 57.699219 219.363281 57.625 C 219.34375 57.550781 219.332031 57.472656 219.3125 57.390625 C 219.367188 57.371094 219.433594 57.339844 219.5 57.320312 C 219.652344 57.28125 219.558594 57.425781 219.601562 57.476562 C 219.648438 57.425781 219.6875 57.378906 219.722656 57.335938 C 219.894531 57.402344 219.890625 57.402344 220.003906 57.582031 C 220.019531 57.605469 220.046875 57.625 220.074219 57.632812 C 220.277344 57.710938 220.308594 57.789062 220.230469 57.972656 C 220.191406 58.058594 220.175781 58.148438 220.140625 58.265625 C 220.070312 58.273438 219.960938 58.28125 219.851562 58.285156 C 219.753906 58.292969 219.726562 58.367188 219.75 58.433594 C 219.757812 58.46875 219.84375 58.484375 219.898438 58.5 C 219.914062 58.507812 219.9375 58.480469 219.960938 58.472656 C 220.101562 58.414062 220.214844 58.433594 220.308594 58.566406 C 220.34375 58.613281 220.398438 58.671875 220.449219 58.679688 C 220.601562 58.703125 220.757812 58.699219 220.957031 58.710938 C 220.867188 58.632812 220.808594 58.585938 220.746094 58.53125 C 220.851562 58.484375 221.007812 58.589844 221.042969 58.414062 C 220.949219 58.304688 220.765625 58.273438 220.8125 58.0625 C 220.949219 58.148438 221.074219 58.226562 221.199219 58.304688 C 221.277344 58.195312 221.351562 58.097656 221.425781 57.996094 C 221.386719 57.972656 221.371094 57.957031 221.347656 57.949219 C 221.199219 57.902344 221.035156 57.878906 220.902344 57.804688 C 220.835938 57.769531 220.6875 57.734375 220.757812 57.566406 C 220.792969 57.484375 220.75 57.375 220.636719 57.328125 C 220.515625 57.277344 220.398438 57.21875 220.28125 57.160156 C 220.238281 57.136719 220.1875 57.109375 220.171875 57.070312 C 220.128906 56.972656 220.078125 56.917969 219.957031 56.929688 C 219.902344 56.9375 219.839844 56.890625 219.808594 56.878906 C 219.785156 56.796875 219.773438 56.699219 219.75 56.691406 C 219.707031 56.683594 219.65625 56.679688 219.613281 56.683594 C 219.390625 56.878906 219.175781 57.082031 218.972656 57.292969 C 219.082031 57.5 219.039062 57.613281 218.78125 57.839844 C 218.746094 57.757812 218.710938 57.679688 218.679688 57.605469 C 217.238281 59.203125 216.257812 61.222656 215.945312 63.457031 C 215.957031 63.496094 215.972656 63.53125 215.992188 63.566406 C 216.023438 63.621094 216.066406 63.699219 216.042969 63.738281 C 215.957031 63.894531 216.042969 63.96875 216.160156 64.035156 C 216.269531 64.097656 216.375 64.171875 216.488281 64.210938 C 216.6875 64.273438 216.875 64.386719 217.101562 64.316406 C 217.230469 64.277344 217.355469 64.320312 217.46875 64.421875 C 217.558594 64.5 217.6875 64.5625 217.804688 64.578125 C 218.054688 64.605469 218.179688 64.738281 218.210938 64.949219 C 218.417969 65.050781 218.609375 65.140625 218.796875 65.234375 C 218.960938 65.046875 218.972656 65.046875 219.097656 65.238281 C 219.207031 65.410156 219.171875 65.597656 219.019531 65.742188 C 218.84375 65.910156 218.664062 66.078125 218.707031 66.359375 C 218.710938 66.382812 218.6875 66.414062 218.675781 66.441406 C 218.585938 66.609375 218.59375 66.640625 218.746094 66.769531 C 218.894531 66.894531 219.027344 67.019531 219.105469 67.21875 C 219.21875 67.523438 219.398438 67.78125 219.753906 67.875 C 219.953125 67.929688 219.996094 68.050781 219.972656 68.289062 C 219.9375 68.640625 219.882812 68.988281 219.863281 69.339844 C 219.855469 69.515625 219.835938 69.683594 219.761719 69.84375 C 219.636719 70.109375 219.730469 70.394531 219.683594 70.667969 C 219.667969 70.753906 219.671875 70.839844 219.671875 70.921875 C 219.671875 70.933594 219.707031 70.945312 219.734375 70.960938 C 219.75 70.898438 219.765625 70.847656 219.785156 70.777344 C 219.878906 71.058594 219.65625 71.21875 219.578125 71.410156 C 219.640625 71.464844 219.6875 71.507812 219.734375 71.550781 C 219.6875 71.601562 219.636719 71.652344 219.578125 71.707031 C 219.636719 71.855469 219.636719 72.035156 219.796875 72.136719 C 219.785156 72.144531 219.75 72.167969 219.679688 72.214844 C 219.898438 72.359375 220.09375 72.480469 220.285156 72.613281 C 220.425781 72.703125 220.5625 72.679688 220.703125 72.628906 C 220.753906 72.609375 220.800781 72.585938 220.851562 72.566406 C 220.792969 72.542969 220.730469 72.527344 220.683594 72.488281 C 220.589844 72.410156 220.457031 72.332031 220.433594 72.230469 C 220.40625 72.117188 220.351562 71.949219 220.535156 71.859375 C 220.601562 71.824219 220.621094 71.71875 220.675781 71.65625 C 220.75 71.574219 220.734375 71.515625 220.652344 71.460938 C 220.601562 71.425781 220.542969 71.390625 220.464844 71.34375 C 220.625 71.207031 220.78125 71.109375 220.804688 70.910156 C 220.808594 70.878906 220.882812 70.855469 220.914062 70.835938 C 220.859375 70.78125 220.800781 70.726562 220.707031 70.632812 C 220.851562 70.632812 220.957031 70.664062 221.007812 70.625 C 221.070312 70.578125 221.082031 70.472656 221.121094 70.371094 C 221.15625 70.363281 221.21875 70.34375 221.28125 70.332031 C 221.339844 70.320312 221.40625 70.324219 221.46875 70.308594 C 221.65625 70.261719 221.707031 70.144531 221.617188 69.964844 C 221.59375 69.917969 221.574219 69.871094 221.550781 69.820312 C 221.9375 69.910156 221.960938 69.898438 222.195312 69.527344 C 222.234375 69.464844 222.304688 69.414062 222.371094 69.382812 C 222.511719 69.308594 222.640625 69.105469 222.617188 68.953125 C 222.597656 68.855469 222.621094 68.78125 222.710938 68.734375 C 222.855469 68.664062 222.996094 68.558594 223.152344 68.523438 C 223.34375 68.484375 223.445312 68.398438 223.554688 68.230469 C 223.6875 68.019531 223.753906 67.8125 223.746094 67.574219 C 223.742188 67.519531 223.746094 67.453125 223.777344 67.417969 C 223.886719 67.300781 224.003906 67.1875 224.121094 67.078125 Z M 224.121094 67.078125 " fill-opacity="1" fill-rule="nonzero"/></g><g clip-path="url(#39ce1440e0)"><path fill="#3870c2" d="M 232.933594 73.980469 C 232.683594 74.042969 232.453125 74.175781 232.273438 74.351562 C 232.167969 74.457031 232.066406 74.527344 231.929688 74.570312 C 231.855469 74.488281 231.835938 74.351562 231.683594 74.382812 C 231.660156 74.386719 231.609375 74.34375 231.601562 74.316406 C 231.570312 74.191406 231.46875 74.195312 231.378906 74.191406 C 231.175781 74.179688 230.976562 74.179688 230.773438 74.171875 C 230.65625 74.164062 230.546875 74.15625 230.496094 74.003906 C 230.457031 73.886719 230.261719 73.835938 230.152344 73.90625 C 230.03125 73.984375 229.925781 74.082031 229.789062 74.183594 C 229.492188 74.148438 229.242188 74.230469 229.054688 74.613281 C 228.765625 74.527344 228.710938 74.503906 228.617188 74.410156 C 228.238281 74.679688 227.839844 74.820312 227.378906 74.613281 C 227.292969 74.574219 227.128906 74.574219 227.082031 74.628906 C 226.988281 74.734375 226.894531 74.730469 226.789062 74.707031 C 226.628906 74.675781 226.480469 74.597656 226.316406 74.699219 C 226.285156 74.71875 226.210938 74.683594 226.160156 74.65625 C 226.078125 74.617188 226 74.566406 225.9375 74.527344 C 225.871094 74.5625 225.820312 74.621094 225.773438 74.613281 C 225.640625 74.601562 225.574219 74.785156 225.433594 74.71875 C 225.371094 74.859375 225.242188 74.824219 225.128906 74.839844 C 225.105469 74.84375 225.074219 74.878906 225.066406 74.902344 C 225.019531 75.050781 224.894531 75.066406 224.769531 75.09375 C 224.574219 75.136719 224.347656 75.113281 224.246094 75.371094 C 224.128906 75.285156 224.019531 75.210938 223.894531 75.328125 C 223.949219 75.375 224 75.417969 224.0625 75.46875 C 223.984375 75.519531 223.921875 75.5625 223.859375 75.601562 C 223.859375 75.609375 223.859375 75.617188 223.859375 75.621094 C 224.820312 75.894531 225.835938 76.039062 226.882812 76.039062 C 229.25 76.039062 231.441406 75.296875 233.234375 74.03125 C 233.117188 74 233.019531 73.960938 232.933594 73.980469 Z M 232.933594 73.980469 " fill-opacity="1" fill-rule="nonzero"/></g><g clip-path="url(#fe21a01f6a)"><path fill="#3870c2" d="M 220.777344 56.34375 C 221 56.300781 221.28125 56.285156 221.492188 56.476562 C 221.703125 56.664062 221.921875 56.84375 221.851562 57.175781 C 221.847656 57.183594 221.867188 57.199219 221.878906 57.210938 C 222.148438 57.191406 222.214844 57.230469 222.222656 57.386719 C 222.144531 57.371094 222.066406 57.351562 221.980469 57.332031 C 221.945312 57.453125 221.847656 57.558594 221.984375 57.644531 C 222.117188 57.734375 222.164062 57.59375 222.230469 57.507812 C 222.351562 57.617188 222.320312 57.710938 222.234375 57.796875 C 222.0625 57.96875 222.054688 58.074219 222.175781 58.277344 C 222.230469 58.367188 222.28125 58.464844 222.324219 58.5625 C 222.394531 58.722656 222.539062 58.867188 222.683594 58.976562 C 222.785156 59.054688 222.941406 59.058594 223.0625 59.09375 C 223.125 58.882812 223.207031 58.664062 223.253906 58.4375 C 223.28125 58.308594 223.339844 58.253906 223.453125 58.253906 C 223.546875 58.253906 223.601562 58.222656 223.667969 58.148438 C 223.792969 57.992188 223.941406 57.871094 224.160156 57.835938 C 224.304688 57.808594 224.441406 57.699219 224.566406 57.605469 C 224.621094 57.5625 224.679688 57.46875 224.671875 57.402344 C 224.65625 57.257812 224.605469 57.113281 224.578125 57 C 224.636719 56.902344 224.691406 56.8125 224.734375 56.722656 C 224.738281 56.714844 224.6875 56.675781 224.644531 56.640625 C 224.707031 56.625 224.757812 56.613281 224.804688 56.601562 C 224.738281 56.523438 224.675781 56.453125 224.601562 56.367188 C 224.667969 56.34375 224.71875 56.328125 224.789062 56.308594 C 224.617188 56.148438 224.605469 55.996094 224.753906 55.832031 C 224.769531 55.8125 224.722656 55.734375 224.707031 55.695312 C 224.90625 55.722656 224.957031 55.503906 225.09375 55.398438 C 224.808594 55.3125 224.570312 55.449219 224.308594 55.5625 C 224.367188 55.445312 224.421875 55.34375 224.480469 55.238281 C 224.292969 55.171875 224.128906 55.09375 223.957031 55.058594 C 223.773438 55.023438 223.582031 55.027344 223.394531 55.019531 C 223.210938 55.011719 223.03125 55.011719 222.886719 55.152344 C 222.691406 55.066406 222.558594 55.226562 222.378906 55.28125 C 222.425781 55.347656 222.46875 55.40625 222.511719 55.464844 C 222.503906 55.476562 222.492188 55.488281 222.480469 55.503906 C 222.371094 55.414062 222.265625 55.324219 222.132812 55.214844 C 222.117188 55.3125 222.109375 55.363281 222.089844 55.484375 C 222.015625 55.265625 221.839844 55.382812 221.726562 55.273438 C 221.714844 55.265625 221.691406 55.261719 221.660156 55.261719 C 221.414062 55.394531 221.175781 55.535156 220.941406 55.6875 C 220.914062 55.8125 220.859375 55.828125 220.742188 55.816406 C 220.742188 55.816406 220.738281 55.816406 220.738281 55.816406 C 220.628906 55.890625 220.523438 55.96875 220.414062 56.042969 C 220.449219 56.058594 220.488281 56.078125 220.542969 56.101562 C 220.464844 56.128906 220.40625 56.148438 220.324219 56.175781 C 220.476562 56.285156 220.5625 56.386719 220.777344 56.34375 Z M 220.777344 56.34375 " fill-opacity="1" fill-rule="nonzero"/></g><g clip-path="url(#33a8fd32d7)"><path fill="#3870c2" d="M 236.917969 68.878906 C 236.828125 69.023438 236.75 69.128906 236.589844 69.179688 C 236.507812 69.207031 236.429688 69.246094 236.355469 69.289062 C 236.207031 69.378906 236.03125 69.449219 236.011719 69.664062 C 235.996094 69.851562 235.964844 70.035156 236.007812 70.226562 C 236.0625 70.488281 236.125 70.75 235.992188 71.011719 C 235.980469 71.035156 236.019531 71.085938 236.054688 71.148438 C 236.609375 70.320312 237.058594 69.417969 237.375 68.453125 C 237.371094 68.449219 237.371094 68.449219 237.367188 68.445312 C 237.214844 68.589844 237.023438 68.707031 236.917969 68.878906 Z M 236.917969 68.878906 " fill-opacity="1" fill-rule="nonzero"/></g><path fill="#3870c2" d="M 236.609375 65.945312 C 236.550781 66.027344 236.523438 66.085938 236.480469 66.128906 C 236.332031 66.273438 236.1875 66.417969 236.023438 66.539062 C 235.980469 66.570312 235.878906 66.542969 235.867188 66.628906 C 235.855469 66.707031 235.867188 66.785156 235.878906 66.863281 C 235.890625 66.90625 235.925781 66.945312 235.945312 66.988281 C 236.015625 67.136719 236.378906 67.242188 236.464844 67.121094 C 236.570312 66.96875 236.671875 66.773438 236.664062 66.601562 C 236.65625 66.425781 236.652344 66.285156 236.78125 66.15625 C 236.726562 66.085938 236.679688 66.027344 236.609375 65.945312 Z M 236.609375 65.945312 " fill-opacity="1" fill-rule="nonzero"/><path fill="#3870c2" d="M 229.960938 69.6875 C 230.027344 69.671875 230.105469 69.613281 230.128906 69.554688 C 230.261719 69.203125 230.382812 68.847656 230.496094 68.488281 C 230.53125 68.378906 230.558594 68.246094 230.425781 68.136719 C 230.308594 68.324219 230.191406 68.492188 229.980469 68.578125 C 229.933594 68.59375 229.921875 68.71875 229.90625 68.796875 C 229.886719 68.875 229.90625 68.972656 229.867188 69.035156 C 229.753906 69.207031 229.757812 69.375 229.835938 69.550781 C 229.859375 69.605469 229.933594 69.695312 229.960938 69.6875 Z M 229.960938 69.6875 " fill-opacity="1" fill-rule="nonzero"/><g clip-path="url(#7715ceffb9)"><path fill="#3870c2" d="M 230.316406 56.972656 C 230.378906 57.011719 230.464844 57.035156 230.492188 57.089844 C 230.578125 57.261719 230.683594 57.207031 230.785156 57.15625 C 230.746094 57.039062 230.679688 56.933594 230.679688 56.828125 C 230.679688 56.566406 230.890625 56.324219 231.144531 56.25 C 231.273438 56.210938 231.398438 56.164062 231.519531 56.109375 C 231.550781 56.097656 231.558594 56.039062 231.574219 56 C 231.535156 55.996094 231.492188 55.976562 231.457031 55.988281 C 231.359375 56.015625 231.265625 56.078125 231.171875 56.082031 C 230.882812 56.097656 230.671875 56.234375 230.484375 56.433594 C 230.460938 56.453125 230.417969 56.484375 230.421875 56.5 C 230.480469 56.683594 230.300781 56.808594 230.316406 56.972656 Z M 230.316406 56.972656 " fill-opacity="1" fill-rule="nonzero"/></g><path fill="#3870c2" d="M 235.484375 66.996094 C 235.46875 66.996094 235.460938 66.960938 235.449219 66.941406 C 235.367188 66.785156 235.285156 66.628906 235.203125 66.476562 C 235.203125 66.476562 235.203125 66.476562 235.207031 66.480469 L 235.210938 66.480469 C 235.210938 66.480469 235.210938 66.480469 235.207031 66.476562 C 235.207031 66.476562 235.207031 66.476562 235.203125 66.476562 C 235.105469 66.371094 235 66.273438 234.914062 66.160156 C 234.84375 66.066406 234.757812 66.050781 234.636719 66.0625 C 234.648438 66.113281 234.648438 66.160156 234.667969 66.183594 C 234.898438 66.433594 235.03125 66.738281 235.152344 67.050781 C 235.179688 67.121094 235.207031 67.195312 235.246094 67.265625 C 235.304688 67.371094 235.453125 67.4375 235.496094 67.371094 C 235.554688 67.277344 235.601562 67.164062 235.617188 67.050781 C 235.628906 66.953125 235.535156 67.003906 235.484375 66.996094 Z M 235.484375 66.996094 " fill-opacity="1" fill-rule="nonzero"/><path fill="#3870c2" d="M 224.691406 58.171875 C 224.679688 58.167969 224.617188 58.238281 224.621094 58.246094 C 224.675781 58.335938 224.675781 58.464844 224.796875 58.511719 C 225.023438 58.597656 225.195312 58.511719 225.304688 58.238281 C 225.261719 58.195312 225.210938 58.148438 225.167969 58.109375 C 224.996094 58.097656 224.863281 58.25 224.691406 58.171875 Z M 224.691406 58.171875 " fill-opacity="1" fill-rule="nonzero"/><g clip-path="url(#205a163733)"><path fill="#3870c2" d="M 237.289062 66.65625 C 237.167969 66.65625 237.074219 66.648438 236.984375 66.660156 C 236.925781 66.671875 236.835938 66.707031 236.820312 66.753906 C 236.746094 66.960938 236.699219 67.179688 236.765625 67.398438 C 236.785156 67.40625 236.800781 67.410156 236.820312 67.414062 C 236.84375 67.347656 236.871094 67.28125 236.894531 67.214844 C 236.960938 67.285156 237.023438 67.351562 237.082031 67.417969 C 237.101562 67.40625 237.117188 67.398438 237.132812 67.386719 C 237.085938 67.265625 237.039062 67.148438 236.996094 67.035156 C 237.035156 66.992188 237.070312 66.953125 237.117188 66.902344 C 237.039062 66.867188 236.976562 66.84375 236.90625 66.8125 C 237.023438 66.707031 237.203125 66.839844 237.289062 66.65625 Z M 237.289062 66.65625 " fill-opacity="1" fill-rule="nonzero"/></g><path fill="#3870c2" d="M 222.175781 60.578125 C 222.109375 60.527344 222.003906 60.511719 221.953125 60.449219 C 221.90625 60.398438 221.914062 60.304688 221.898438 60.230469 C 221.808594 60.382812 221.714844 60.535156 221.621094 60.691406 C 221.867188 60.726562 222.089844 60.757812 222.367188 60.796875 C 222.285156 60.699219 222.238281 60.628906 222.175781 60.578125 Z M 222.175781 60.578125 " fill-opacity="1" fill-rule="nonzero"/><path fill="#3870c2" d="M 236.257812 67.621094 C 236.128906 67.421875 235.886719 67.53125 235.714844 67.429688 C 235.671875 67.40625 235.535156 67.449219 235.519531 67.492188 C 235.480469 67.597656 235.59375 67.609375 235.664062 67.625 C 235.867188 67.671875 236.070312 67.707031 236.324219 67.757812 C 236.289062 67.6875 236.277344 67.652344 236.257812 67.621094 Z M 236.257812 67.621094 " fill-opacity="1" fill-rule="nonzero"/><path fill="#3870c2" d="M 225.082031 59.789062 C 224.914062 59.898438 224.96875 60.054688 224.941406 60.222656 C 224.996094 60.226562 225.027344 60.234375 225.054688 60.226562 C 225.214844 60.191406 225.273438 60.074219 225.277344 59.917969 C 225.277344 59.863281 225.308594 59.78125 225.285156 59.761719 C 225.222656 59.710938 225.160156 59.742188 225.082031 59.789062 Z M 225.082031 59.789062 " fill-opacity="1" fill-rule="nonzero"/><path fill="#3870c2" d="M 218.5625 63.589844 C 218.5625 63.605469 218.558594 63.621094 218.558594 63.640625 C 218.640625 63.625 218.730469 63.582031 218.800781 63.605469 C 218.953125 63.65625 219.117188 63.714844 219.238281 63.816406 C 219.375 63.933594 219.496094 63.925781 219.675781 63.859375 C 219.292969 63.703125 218.976562 63.414062 218.5625 63.589844 Z M 218.5625 63.589844 " fill-opacity="1" fill-rule="nonzero"/><g clip-path="url(#b9e836aa03)"><path fill="#3870c2" d="M 237.234375 65.160156 C 237.042969 65.09375 237.007812 64.988281 237.117188 64.808594 C 237.167969 64.722656 237.097656 64.652344 236.972656 64.628906 C 236.882812 65.117188 236.882812 65.117188 237.269531 65.253906 C 237.25 65.199219 237.25 65.164062 237.234375 65.160156 Z M 237.234375 65.160156 " fill-opacity="1" fill-rule="nonzero"/></g><path fill="#3870c2" d="M 219.898438 63.957031 C 219.902344 64.109375 219.773438 64.046875 219.695312 64.058594 C 219.699219 64.078125 219.703125 64.09375 219.707031 64.113281 C 219.933594 64.097656 220.15625 64.082031 220.378906 64.066406 C 220.382812 64.042969 220.386719 64.019531 220.386719 63.996094 C 220.265625 63.96875 220.140625 63.9375 220.015625 63.917969 C 219.976562 63.910156 219.898438 63.941406 219.898438 63.957031 Z M 219.898438 63.957031 " fill-opacity="1" fill-rule="nonzero"/><g clip-path="url(#e3699fce3a)"><path fill="#3870c2" d="M 237.046875 65.859375 C 237.164062 65.957031 237.253906 66.03125 237.34375 66.105469 C 237.359375 65.960938 237.566406 65.863281 237.414062 65.726562 C 237.289062 65.773438 237.175781 65.816406 237.046875 65.859375 Z M 237.046875 65.859375 " fill-opacity="1" fill-rule="nonzero"/></g><path fill="#3870c2" d="M 218.828125 58.410156 C 218.867188 58.441406 218.910156 58.472656 218.960938 58.511719 C 219.007812 58.445312 219.046875 58.390625 219.082031 58.339844 C 219.15625 58.398438 219.207031 58.507812 219.320312 58.394531 C 219.199219 58.300781 219.078125 58.210938 218.941406 58.105469 C 218.890625 58.234375 218.859375 58.320312 218.828125 58.410156 Z M 218.828125 58.410156 " fill-opacity="1" fill-rule="nonzero"/><g clip-path="url(#c1fb565b75)"><path fill="#3870c2" d="M 235.449219 66.53125 C 235.363281 66.351562 235.453125 66.136719 235.269531 65.976562 C 235.015625 65.761719 235.039062 65.496094 235.179688 65.167969 C 235.324219 65.363281 235.449219 65.527344 235.566406 65.6875 C 235.648438 65.628906 235.742188 65.558594 235.835938 65.492188 C 235.949219 65.417969 235.992188 65.304688 235.957031 65.183594 C 235.90625 65.03125 235.84375 64.871094 235.753906 64.738281 C 235.578125 64.484375 235.632812 64.3125 235.933594 64.234375 C 236.011719 64.324219 236.039062 64.40625 235.921875 64.488281 C 235.90625 64.5 235.933594 64.578125 235.945312 64.625 C 235.988281 64.605469 236.046875 64.601562 236.078125 64.570312 C 236.101562 64.539062 236.113281 64.472656 236.09375 64.4375 C 236.023438 64.285156 236.113281 64.246094 236.226562 64.203125 C 236.355469 64.152344 236.476562 64.09375 236.59375 64.023438 C 236.859375 63.867188 236.90625 63.578125 237.019531 63.328125 C 237.082031 63.1875 237.027344 63.042969 236.964844 62.90625 C 236.941406 62.859375 236.910156 62.8125 236.882812 62.765625 C 236.789062 62.585938 236.816406 62.480469 236.980469 62.367188 C 237.015625 62.34375 237.050781 62.320312 237.082031 62.300781 C 237.078125 62.285156 237.074219 62.269531 237.070312 62.253906 C 236.964844 62.253906 236.855469 62.253906 236.722656 62.253906 C 236.703125 62.21875 236.671875 62.160156 236.644531 62.113281 C 236.761719 62.011719 236.863281 61.921875 236.988281 61.808594 C 236.988281 61.914062 236.988281 61.984375 236.988281 62.050781 C 237.015625 62.050781 237.023438 62.054688 237.03125 62.050781 C 237.21875 61.925781 237.21875 61.925781 237.285156 62.136719 C 237.296875 62.164062 237.316406 62.203125 237.339844 62.210938 C 237.507812 62.265625 237.460938 62.402344 237.457031 62.523438 C 237.457031 62.570312 237.457031 62.621094 237.457031 62.695312 C 237.539062 62.648438 237.597656 62.613281 237.660156 62.578125 C 237.082031 59.980469 235.585938 57.730469 233.535156 56.179688 C 233.503906 56.183594 233.472656 56.199219 233.441406 56.226562 C 233.375 56.292969 233.355469 56.398438 233.292969 56.523438 C 233.253906 56.523438 233.15625 56.507812 233.066406 56.53125 C 232.988281 56.546875 232.886719 56.589844 232.863281 56.648438 C 232.820312 56.746094 232.863281 56.851562 232.976562 56.898438 C 233.007812 56.910156 233.035156 56.921875 233.058594 56.941406 C 233.144531 57.015625 233.140625 57.152344 233.035156 57.265625 C 233.035156 57.160156 233.035156 57.070312 233.035156 56.992188 C 232.875 56.917969 232.730469 56.851562 232.550781 56.765625 C 232.632812 56.902344 232.578125 56.960938 232.453125 56.980469 C 232.503906 57.039062 232.535156 57.078125 232.566406 57.121094 C 232.414062 57.191406 232.378906 57.050781 232.300781 56.976562 C 232.144531 57.132812 232.3125 57.277344 232.300781 57.421875 C 232.300781 57.433594 232.429688 57.453125 232.453125 57.457031 C 232.425781 57.535156 232.390625 57.621094 232.359375 57.707031 C 232.335938 57.765625 232.316406 57.828125 232.296875 57.890625 C 232.257812 57.777344 232.257812 57.675781 232.246094 57.582031 C 232.234375 57.492188 232.21875 57.398438 232.179688 57.320312 C 232.109375 57.160156 232.136719 57.003906 232.132812 56.839844 C 232.132812 56.792969 232.078125 56.71875 232.035156 56.707031 C 231.976562 56.691406 231.882812 56.699219 231.84375 56.738281 C 231.667969 56.910156 231.644531 57.195312 231.761719 57.417969 C 231.785156 57.464844 231.78125 57.527344 231.796875 57.617188 C 231.578125 57.46875 231.410156 57.285156 231.152344 57.402344 C 231.132812 57.476562 231.210938 57.644531 231.007812 57.550781 C 230.980469 57.535156 230.933594 57.554688 230.898438 57.5625 C 230.796875 57.574219 230.660156 57.636719 230.609375 57.59375 C 230.480469 57.480469 230.382812 57.566406 230.292969 57.617188 C 230.199219 57.671875 230.121094 57.761719 230.039062 57.84375 C 230.007812 57.875 229.992188 57.921875 229.972656 57.964844 C 229.945312 57.953125 229.921875 57.941406 229.894531 57.929688 C 229.894531 57.878906 229.875 57.820312 229.890625 57.777344 C 229.945312 57.613281 229.933594 57.59375 229.730469 57.5625 C 229.722656 57.6875 229.714844 57.808594 229.703125 57.921875 C 229.613281 57.949219 229.519531 57.953125 229.464844 58 C 229.417969 58.042969 229.414062 58.136719 229.394531 58.207031 C 229.332031 58.183594 229.265625 58.160156 229.164062 58.121094 C 229.203125 58.226562 229.226562 58.285156 229.25 58.347656 C 229.167969 58.351562 229.082031 58.332031 229.066406 58.289062 C 229.003906 58.136719 228.941406 57.988281 228.796875 57.882812 C 228.9375 57.910156 229.0625 57.957031 229.1875 57.992188 C 229.3125 58.027344 229.40625 57.96875 229.457031 57.855469 C 229.5 57.75 229.425781 57.695312 229.347656 57.648438 C 229.203125 57.566406 229.066406 57.457031 228.914062 57.417969 C 228.675781 57.351562 228.53125 57.15625 228.332031 57.050781 C 228.285156 57.074219 228.25 57.113281 228.21875 57.109375 C 227.96875 57.078125 227.78125 57.261719 227.550781 57.289062 C 227.492188 57.292969 227.410156 57.378906 227.402344 57.4375 C 227.355469 57.75 227.164062 57.988281 226.980469 58.167969 C 226.792969 58.355469 226.585938 58.53125 226.382812 58.703125 C 226.320312 58.757812 226.308594 58.808594 226.332031 58.886719 C 226.355469 58.972656 226.359375 59.066406 226.371094 59.160156 C 226.402344 59.355469 226.515625 59.40625 226.6875 59.3125 C 226.753906 59.277344 226.820312 59.246094 226.878906 59.214844 C 226.933594 59.347656 226.980469 59.453125 227.027344 59.566406 C 226.96875 59.605469 226.910156 59.640625 226.847656 59.679688 C 226.839844 59.570312 226.832031 59.476562 226.820312 59.371094 C 226.597656 59.535156 226.597656 59.535156 226.65625 59.765625 C 226.707031 59.957031 226.6875 59.976562 226.5 60.023438 C 226.429688 60.042969 226.324219 60.074219 226.308594 60.121094 C 226.246094 60.292969 226.125 60.261719 225.980469 60.265625 C 226.011719 60.191406 226.035156 60.140625 226.050781 60.101562 C 225.945312 59.988281 225.847656 59.890625 225.761719 59.78125 C 225.671875 59.671875 225.601562 59.550781 225.6875 59.398438 C 225.625 59.382812 225.582031 59.371094 225.535156 59.359375 C 225.539062 59.316406 225.542969 59.273438 225.546875 59.234375 C 225.394531 59.203125 225.378906 59.316406 225.351562 59.402344 C 225.265625 59.632812 225.421875 59.765625 225.601562 59.894531 C 225.375 60.003906 225.414062 60.183594 225.425781 60.367188 C 225.617188 60.351562 225.796875 60.335938 225.976562 60.320312 C 225.980469 60.347656 225.988281 60.371094 225.992188 60.398438 C 225.898438 60.4375 225.734375 60.457031 225.722656 60.515625 C 225.675781 60.6875 225.472656 60.515625 225.449219 60.679688 C 225.59375 60.839844 225.882812 60.9375 225.746094 61.246094 C 225.488281 61.316406 225.226562 61.152344 225 61.289062 C 225.007812 61.417969 225.042969 61.53125 225.007812 61.621094 C 224.957031 61.761719 224.984375 61.878906 225.039062 62 C 225.113281 62.019531 225.183594 62.027344 225.246094 62.058594 C 225.542969 62.199219 225.816406 62.011719 225.902344 61.789062 C 225.925781 61.71875 225.964844 61.640625 226.019531 61.59375 C 226.105469 61.519531 226.226562 61.484375 226.226562 61.335938 C 226.226562 61.320312 226.300781 61.285156 226.320312 61.296875 C 226.496094 61.394531 226.609375 61.242188 226.757812 61.179688 C 226.800781 61.234375 226.835938 61.285156 226.875 61.328125 C 226.953125 61.417969 227.019531 61.523438 227.117188 61.582031 C 227.28125 61.679688 227.414062 61.785156 227.410156 62.007812 C 227.425781 62.003906 227.441406 62 227.457031 61.996094 C 227.488281 61.894531 227.519531 61.789062 227.558594 61.660156 C 227.539062 61.640625 227.484375 61.601562 227.429688 61.554688 C 227.308594 61.449219 227.183594 61.347656 227.074219 61.234375 C 227.042969 61.203125 227.058594 61.128906 227.054688 61.074219 C 227.179688 61.132812 227.253906 61.226562 227.347656 61.28125 C 227.539062 61.402344 227.726562 61.5 227.777344 61.761719 C 227.800781 61.890625 227.929688 62 228.03125 62.140625 C 228.089844 62.101562 228.15625 62.054688 228.222656 62.011719 C 228.164062 61.917969 228.117188 61.847656 228.074219 61.777344 C 228.339844 61.609375 228.339844 61.609375 228.410156 61.886719 C 228.425781 61.945312 228.433594 62.019531 228.472656 62.058594 C 228.546875 62.136719 228.632812 62.234375 228.726562 62.253906 C 228.886719 62.285156 229.058594 62.261719 229.238281 62.261719 C 229.242188 62.277344 229.265625 62.308594 229.261719 62.335938 C 229.25 62.464844 229.257812 62.609375 229.199219 62.71875 C 229.171875 62.773438 229.023438 62.761719 228.929688 62.78125 C 228.898438 62.789062 228.867188 62.792969 228.835938 62.796875 C 228.589844 62.847656 228.355469 62.820312 228.132812 62.695312 C 228.101562 62.679688 228.070312 62.652344 228.03125 62.640625 C 227.90625 62.59375 227.851562 62.628906 227.8125 62.765625 C 227.800781 62.800781 227.792969 62.832031 227.773438 62.902344 C 227.636719 62.84375 227.519531 62.792969 227.402344 62.738281 C 227.328125 62.703125 227.257812 62.648438 227.179688 62.625 C 226.988281 62.566406 226.964844 62.535156 226.960938 62.320312 C 226.960938 62.273438 226.964844 62.222656 226.949219 62.183594 C 226.929688 62.140625 226.886719 62.074219 226.855469 62.074219 C 226.515625 62.085938 226.160156 62.023438 225.835938 62.175781 C 225.664062 62.257812 225.496094 62.28125 225.339844 62.1875 C 225.265625 62.277344 225.21875 62.394531 225.140625 62.425781 C 224.964844 62.492188 224.917969 62.613281 224.929688 62.773438 C 224.9375 62.882812 224.898438 62.964844 224.804688 63.007812 C 224.523438 63.132812 224.40625 63.394531 224.257812 63.632812 C 224.210938 63.703125 224.203125 63.753906 224.222656 63.84375 C 224.253906 63.984375 224.273438 64.152344 224.226562 64.28125 C 224.132812 64.523438 224.179688 64.703125 224.371094 64.863281 C 224.40625 64.890625 224.4375 64.933594 224.457031 64.976562 C 224.5625 65.222656 224.742188 65.398438 224.953125 65.554688 C 225.070312 65.648438 225.167969 65.746094 225.324219 65.636719 C 225.351562 65.617188 225.40625 65.617188 225.4375 65.628906 C 225.6875 65.71875 225.917969 65.625 226.148438 65.5625 C 226.308594 65.519531 226.410156 65.546875 226.472656 65.699219 C 226.503906 65.777344 226.539062 65.808594 226.621094 65.816406 C 226.894531 65.839844 226.921875 65.878906 226.871094 66.15625 C 226.859375 66.210938 226.859375 66.269531 226.84375 66.320312 C 226.796875 66.441406 226.839844 66.53125 226.921875 66.617188 C 227.097656 66.800781 227.179688 67.039062 227.210938 67.277344 C 227.242188 67.480469 227.289062 67.695312 227.148438 67.910156 C 227.050781 68.054688 226.976562 68.261719 227.078125 68.449219 C 227.238281 68.746094 227.300781 69.0625 227.300781 69.394531 C 227.300781 69.488281 227.316406 69.585938 227.359375 69.667969 C 227.464844 69.871094 227.558594 70.070312 227.496094 70.3125 C 227.464844 70.4375 227.554688 70.546875 227.664062 70.550781 C 227.816406 70.554688 227.972656 70.5625 228.125 70.542969 C 228.21875 70.53125 228.332031 70.492188 228.398438 70.425781 C 228.59375 70.226562 228.8125 70.035156 228.859375 69.738281 C 228.875 69.628906 228.902344 69.554688 229.007812 69.53125 C 229.117188 69.507812 229.144531 69.433594 229.140625 69.335938 C 229.136719 69.257812 229.140625 69.179688 229.136719 69.101562 C 229.113281 68.847656 229.183594 68.742188 229.40625 68.625 C 229.503906 68.574219 229.625 68.480469 229.640625 68.390625 C 229.683594 68.15625 229.734375 67.921875 229.636719 67.675781 C 229.582031 67.535156 229.570312 67.351562 229.605469 67.199219 C 229.667969 66.914062 229.886719 66.707031 230.050781 66.46875 C 230.0625 66.453125 230.089844 66.441406 230.105469 66.425781 C 230.222656 66.292969 230.371094 66.175781 230.453125 66.023438 C 230.570312 65.8125 230.640625 65.574219 230.726562 65.347656 C 230.746094 65.296875 230.734375 65.234375 230.742188 65.164062 C 230.65625 65.179688 230.601562 65.191406 230.550781 65.203125 C 230.488281 65.214844 230.429688 65.234375 230.367188 65.246094 C 230.140625 65.300781 230.074219 65.25 230.042969 65.023438 C 230.058594 65.019531 229.828125 64.785156 229.730469 64.667969 C 229.703125 64.632812 229.6875 64.585938 229.671875 64.542969 C 229.664062 64.523438 229.675781 64.488281 229.664062 64.476562 C 229.484375 64.289062 229.5 64.023438 229.378906 63.808594 C 229.277344 63.628906 229.222656 63.421875 229.175781 63.191406 C 229.21875 63.210938 229.285156 63.21875 229.308594 63.257812 C 229.433594 63.472656 229.613281 63.667969 229.625 63.941406 C 229.628906 64.089844 229.746094 64.167969 229.820312 64.273438 C 229.960938 64.46875 230.039062 64.925781 230.046875 64.941406 C 230.074219 64.960938 230.101562 64.980469 230.121094 65.003906 C 230.265625 64.972656 230.410156 64.945312 230.542969 64.890625 C 230.683594 64.832031 230.789062 64.707031 230.925781 64.644531 C 231.164062 64.539062 231.3125 64.375 231.410156 64.136719 C 231.472656 63.988281 231.445312 63.898438 231.339844 63.804688 C 231.269531 63.738281 231.199219 63.667969 231.128906 63.601562 C 230.882812 63.765625 230.863281 63.78125 230.679688 63.554688 C 230.5625 63.417969 230.421875 63.261719 230.433594 63.050781 C 230.597656 62.976562 230.628906 63.097656 230.683594 63.191406 C 230.851562 63.488281 230.890625 63.507812 231.214844 63.453125 C 231.25 63.589844 231.34375 63.648438 231.488281 63.644531 C 231.605469 63.636719 231.722656 63.664062 231.835938 63.652344 C 231.941406 63.640625 232.015625 63.65625 232.085938 63.742188 C 232.152344 63.828125 232.234375 63.902344 232.308594 63.980469 C 232.324219 63.996094 232.34375 64.023438 232.339844 64.03125 C 232.265625 64.121094 232.328125 64.195312 232.394531 64.222656 C 232.449219 64.246094 232.527344 64.214844 232.59375 64.207031 C 232.632812 64.75 232.789062 65.257812 233.023438 65.761719 C 233.253906 65.605469 233.292969 65.402344 233.285156 65.175781 C 233.28125 65.03125 233.296875 64.914062 233.429688 64.808594 C 233.625 64.648438 233.789062 64.449219 233.96875 64.269531 C 233.992188 64.242188 234.03125 64.230469 234.066406 64.21875 C 234.152344 64.179688 234.242188 64.144531 234.34375 64.105469 C 234.390625 64.359375 234.695312 64.527344 234.582031 64.878906 C 234.699219 64.84375 234.769531 64.820312 234.863281 64.792969 C 234.910156 65 234.984375 65.203125 235 65.410156 C 235.015625 65.613281 234.984375 65.808594 235.101562 66.003906 C 235.179688 66.136719 235.175781 66.316406 235.210938 66.476562 C 235.277344 66.507812 235.339844 66.535156 235.40625 66.5625 C 235.417969 66.550781 235.433594 66.542969 235.449219 66.53125 Z M 228.019531 59.117188 C 228.039062 59.238281 228.050781 59.332031 228.074219 59.460938 C 227.980469 59.425781 227.929688 59.40625 227.890625 59.394531 C 227.808594 59.539062 227.761719 59.71875 227.644531 59.8125 C 227.546875 59.898438 227.371094 59.90625 227.226562 59.917969 C 227.128906 59.925781 227.023438 59.882812 227.003906 59.742188 C 227.070312 59.710938 227.128906 59.667969 227.199219 59.648438 C 227.355469 59.601562 227.402344 59.492188 227.414062 59.34375 C 227.417969 59.296875 227.476562 59.25 227.511719 59.210938 C 227.585938 59.136719 227.628906 59.066406 227.542969 58.964844 C 227.375 58.765625 227.414062 58.550781 227.625 58.382812 C 227.683594 58.335938 227.742188 58.265625 227.765625 58.191406 C 227.828125 58.003906 227.855469 57.984375 228.132812 58.054688 C 228.046875 58.179688 227.984375 58.285156 227.910156 58.378906 C 227.777344 58.542969 227.828125 58.878906 228.011719 58.96875 C 228.050781 58.988281 228.125 58.953125 228.175781 58.929688 C 228.320312 58.863281 228.363281 58.871094 228.511719 59.03125 C 228.34375 59.058594 228.1875 59.089844 228.019531 59.117188 Z M 229.578125 61.640625 C 229.472656 61.636719 229.355469 61.625 229.261719 61.578125 C 229.128906 61.515625 229.015625 61.492188 228.882812 61.574219 C 228.835938 61.605469 228.765625 61.613281 228.703125 61.613281 C 228.527344 61.605469 228.484375 61.535156 228.554688 61.371094 C 228.617188 61.230469 228.683594 61.089844 228.769531 60.902344 C 228.863281 60.992188 228.921875 61.03125 228.957031 61.085938 C 229.0625 61.222656 229.058594 61.222656 229.234375 61.152344 C 229.195312 61.117188 229.160156 61.082031 229.101562 61.03125 C 229.21875 60.980469 229.308594 60.945312 229.421875 60.898438 C 229.398438 60.992188 229.375 61.070312 229.347656 61.167969 C 229.449219 61.246094 229.558594 61.324219 229.65625 61.414062 C 229.695312 61.453125 229.707031 61.519531 229.734375 61.570312 C 229.683594 61.597656 229.628906 61.644531 229.578125 61.640625 Z M 229.578125 61.640625 " fill-opacity="1" fill-rule="nonzero"/></g><g fill="#4074ae" fill-opacity="1"><g transform="translate(115.735317, 97.945362)"><g><path d="M 4.796875 0 L 2.578125 0 L 0.28125 -10.046875 L 2.25 -10.046875 L 3.78125 -2.984375 L 3.953125 -2.984375 L 5.75 -10.046875 L 7.4375 -10.046875 L 9.28125 -2.984375 L 9.453125 -2.984375 L 10.984375 -10.046875 L 12.890625 -10.046875 L 10.59375 0 L 8.359375 0 L 6.609375 -6.484375 L 6.46875 -6.484375 Z M 4.796875 0 "/></g></g></g><g fill="#4074ae" fill-opacity="1"><g transform="translate(140.144686, 97.945362)"><g><path d="M 9.640625 0 L 7.546875 0 L 6.796875 -2.3125 L 2.953125 -2.3125 L 2.1875 0 L 0.15625 0 L 3.625 -10.046875 L 6.171875 -10.046875 Z M 4.78125 -7.953125 L 3.484375 -3.984375 L 6.25 -3.984375 L 4.953125 -7.953125 Z M 4.78125 -7.953125 "/></g></g></g><g fill="#4074ae" fill-opacity="1"><g transform="translate(161.194391, 97.945362)"><g><path d="M 5.5 0 L 3.515625 0 L 3.515625 -3.953125 L 0.046875 -10.046875 L 2.171875 -10.046875 L 4.46875 -6.09375 L 4.640625 -6.09375 L 6.890625 -10.046875 L 8.984375 -10.046875 L 5.5 -3.953125 Z M 5.5 0 "/></g></g></g><g fill="#4074ae" fill-opacity="1"><g transform="translate(181.474602, 97.945362)"><g/></g></g><g fill="#4074ae" fill-opacity="1"><g transform="translate(196.052316, 97.945362)"><g><path d="M 8.0625 -10.046875 L 8.0625 -8.375 L 5.15625 -8.375 L 5.15625 0 L 3.171875 0 L 3.171875 -8.375 L 0.28125 -8.375 L 0.28125 -10.046875 Z M 8.0625 -10.046875 "/></g></g></g><g fill="#4074ae" fill-opacity="1"><g transform="translate(215.638613, 97.945362)"><g><path d="M 5.484375 0.140625 C 4.554688 0.140625 3.738281 -0.046875 3.03125 -0.421875 C 2.332031 -0.796875 1.785156 -1.367188 1.390625 -2.140625 C 0.992188 -2.910156 0.796875 -3.875 0.796875 -5.03125 C 0.796875 -6.175781 0.992188 -7.132812 1.390625 -7.90625 C 1.785156 -8.675781 2.332031 -9.25 3.03125 -9.625 C 3.738281 -10 4.554688 -10.1875 5.484375 -10.1875 C 6.398438 -10.1875 7.207031 -10 7.90625 -9.625 C 8.613281 -9.257812 9.164062 -8.6875 9.5625 -7.90625 C 9.957031 -7.132812 10.15625 -6.175781 10.15625 -5.03125 C 10.15625 -3.875 9.957031 -2.90625 9.5625 -2.125 C 9.164062 -1.351562 8.613281 -0.78125 7.90625 -0.40625 C 7.207031 -0.0390625 6.398438 0.140625 5.484375 0.140625 Z M 5.484375 -1.578125 C 6.328125 -1.578125 6.972656 -1.847656 7.421875 -2.390625 C 7.878906 -2.941406 8.109375 -3.820312 8.109375 -5.03125 C 8.109375 -6.226562 7.878906 -7.097656 7.421875 -7.640625 C 6.972656 -8.191406 6.328125 -8.46875 5.484375 -8.46875 C 4.617188 -8.46875 3.960938 -8.191406 3.515625 -7.640625 C 3.066406 -7.097656 2.84375 -6.226562 2.84375 -5.03125 C 2.84375 -3.820312 3.066406 -2.941406 3.515625 -2.390625 C 3.960938 -1.847656 4.617188 -1.578125 5.484375 -1.578125 Z M 5.484375 -1.578125 "/></g></g></g><g fill="#4074ae" fill-opacity="1"><g transform="translate(237.842562, 97.945362)"><g/></g></g><g fill="#4074ae" fill-opacity="1"><g transform="translate(252.42028, 97.945362)"><g><path d="M 5.5 0.140625 C 4.570312 0.140625 3.753906 -0.0507812 3.046875 -0.4375 C 2.335938 -0.820312 1.785156 -1.398438 1.390625 -2.171875 C 0.992188 -2.941406 0.796875 -3.894531 0.796875 -5.03125 C 0.796875 -6.15625 0.992188 -7.101562 1.390625 -7.875 C 1.785156 -8.65625 2.335938 -9.234375 3.046875 -9.609375 C 3.753906 -9.992188 4.570312 -10.1875 5.5 -10.1875 C 6.457031 -10.1875 7.273438 -10 7.953125 -9.625 C 8.628906 -9.25 9.113281 -8.671875 9.40625 -7.890625 L 7.953125 -7.015625 L 7.78125 -7.015625 C 7.5625 -7.535156 7.269531 -7.910156 6.90625 -8.140625 C 6.539062 -8.367188 6.070312 -8.484375 5.5 -8.484375 C 4.65625 -8.484375 4 -8.207031 3.53125 -7.65625 C 3.070312 -7.101562 2.84375 -6.226562 2.84375 -5.03125 C 2.84375 -3.832031 3.070312 -2.957031 3.53125 -2.40625 C 4 -1.851562 4.65625 -1.578125 5.5 -1.578125 C 6.800781 -1.578125 7.597656 -2.210938 7.890625 -3.484375 L 8.0625 -3.484375 L 9.53125 -2.71875 C 9.25 -1.757812 8.773438 -1.039062 8.109375 -0.5625 C 7.453125 -0.09375 6.582031 0.140625 5.5 0.140625 Z M 5.5 0.140625 "/></g></g></g><g fill="#4074ae" fill-opacity="1"><g transform="translate(273.531823, 97.945362)"><g><path d="M 5.484375 0.140625 C 4.554688 0.140625 3.738281 -0.046875 3.03125 -0.421875 C 2.332031 -0.796875 1.785156 -1.367188 1.390625 -2.140625 C 0.992188 -2.910156 0.796875 -3.875 0.796875 -5.03125 C 0.796875 -6.175781 0.992188 -7.132812 1.390625 -7.90625 C 1.785156 -8.675781 2.332031 -9.25 3.03125 -9.625 C 3.738281 -10 4.554688 -10.1875 5.484375 -10.1875 C 6.398438 -10.1875 7.207031 -10 7.90625 -9.625 C 8.613281 -9.257812 9.164062 -8.6875 9.5625 -7.90625 C 9.957031 -7.132812 10.15625 -6.175781 10.15625 -5.03125 C 10.15625 -3.875 9.957031 -2.90625 9.5625 -2.125 C 9.164062 -1.351562 8.613281 -0.78125 7.90625 -0.40625 C 7.207031 -0.0390625 6.398438 0.140625 5.484375 0.140625 Z M 5.484375 -1.578125 C 6.328125 -1.578125 6.972656 -1.847656 7.421875 -2.390625 C 7.878906 -2.941406 8.109375 -3.820312 8.109375 -5.03125 C 8.109375 -6.226562 7.878906 -7.097656 7.421875 -7.640625 C 6.972656 -8.191406 6.328125 -8.46875 5.484375 -8.46875 C 4.617188 -8.46875 3.960938 -8.191406 3.515625 -7.640625 C 3.066406 -7.097656 2.84375 -6.226562 2.84375 -5.03125 C 2.84375 -3.820312 3.066406 -2.941406 3.515625 -2.390625 C 3.960938 -1.847656 4.617188 -1.578125 5.484375 -1.578125 Z M 5.484375 -1.578125 "/></g></g></g><g fill="#4074ae" fill-opacity="1"><g transform="translate(295.735772, 97.945362)"><g><path d="M 3.234375 0 L 1.3125 0 L 1.3125 -10.046875 L 3.578125 -10.046875 L 7.609375 -3.578125 L 7.796875 -3.609375 L 7.796875 -10.046875 L 9.703125 -10.046875 L 9.703125 0 L 7.671875 0 L 3.40625 -6.921875 L 3.234375 -6.890625 Z M 3.234375 0 "/></g></g></g><g fill="#4074ae" fill-opacity="1"><g transform="translate(318.008426, 97.945362)"><g><path d="M 3.234375 0 L 1.3125 0 L 1.3125 -10.046875 L 3.578125 -10.046875 L 7.609375 -3.578125 L 7.796875 -3.609375 L 7.796875 -10.046875 L 9.703125 -10.046875 L 9.703125 0 L 7.671875 0 L 3.40625 -6.921875 L 3.234375 -6.890625 Z M 3.234375 0 "/></g></g></g><g fill="#4074ae" fill-opacity="1"><g transform="translate(340.281079, 97.945362)"><g><path d="M 3.296875 -4.40625 L 3.296875 -1.65625 L 8.09375 -1.65625 L 8.09375 0 L 1.3125 0 L 1.3125 -10.046875 L 7.984375 -10.046875 L 7.984375 -8.390625 L 3.296875 -8.390625 L 3.296875 -6.03125 L 7.390625 -6.03125 L 7.390625 -4.40625 Z M 3.296875 -4.40625 "/></g></g></g><g fill="#4074ae" fill-opacity="1"><g transform="translate(360.176548, 97.945362)"><g><path d="M 5.5 0.140625 C 4.570312 0.140625 3.753906 -0.0507812 3.046875 -0.4375 C 2.335938 -0.820312 1.785156 -1.398438 1.390625 -2.171875 C 0.992188 -2.941406 0.796875 -3.894531 0.796875 -5.03125 C 0.796875 -6.15625 0.992188 -7.101562 1.390625 -7.875 C 1.785156 -8.65625 2.335938 -9.234375 3.046875 -9.609375 C 3.753906 -9.992188 4.570312 -10.1875 5.5 -10.1875 C 6.457031 -10.1875 7.273438 -10 7.953125 -9.625 C 8.628906 -9.25 9.113281 -8.671875 9.40625 -7.890625 L 7.953125 -7.015625 L 7.78125 -7.015625 C 7.5625 -7.535156 7.269531 -7.910156 6.90625 -8.140625 C 6.539062 -8.367188 6.070312 -8.484375 5.5 -8.484375 C 4.65625 -8.484375 4 -8.207031 3.53125 -7.65625 C 3.070312 -7.101562 2.84375 -6.226562 2.84375 -5.03125 C 2.84375 -3.832031 3.070312 -2.957031 3.53125 -2.40625 C 4 -1.851562 4.65625 -1.578125 5.5 -1.578125 C 6.800781 -1.578125 7.597656 -2.210938 7.890625 -3.484375 L 8.0625 -3.484375 L 9.53125 -2.71875 C 9.25 -1.757812 8.773438 -1.039062 8.109375 -0.5625 C 7.453125 -0.09375 6.582031 0.140625 5.5 0.140625 Z M 5.5 0.140625 "/></g></g></g><g fill="#4074ae" fill-opacity="1"><g transform="translate(381.288091, 97.945362)"><g><path d="M 8.0625 -10.046875 L 8.0625 -8.375 L 5.15625 -8.375 L 5.15625 0 L 3.171875 0 L 3.171875 -8.375 L 0.28125 -8.375 L 0.28125 -10.046875 Z M 8.0625 -10.046875 "/></g></g></g></svg>